<svg width="30" height="30" viewBox="0 0 30 30" fill="none" xmlns="http://www.w3.org/2000/svg">
<path d="M25.6801 21.1623C28.7307 18.2317 26.1622 17.0297 23.5977 17.6971C22.9813 17.8575 22.3056 17.5343 21.9797 16.9871C20.7781 14.9698 18.5125 16.1913 17.8905 17.5123C17.6329 18.0593 17.3202 18.7856 16.7678 19.0313C12.6583 20.8588 14.1587 23.1092 15.9005 24.3458C16.2567 24.5987 16.4495 25.033 16.3907 25.4658C15.8637 29.3472 18.8463 28.5449 20.6878 27.497C20.8481 27.4058 21.0357 27.3541 21.2202 27.3526C29.2047 27.2893 27.8853 24.7751 25.6992 22.8317C25.2093 22.3962 25.2073 21.6165 25.6801 21.1623Z" stroke="#96B87D" stroke-width="2" stroke-linecap="round"/>
<path d="M3 24L26 1" stroke="#96B87D" stroke-width="2" stroke-linecap="round"/>
<path d="M26.6285 18C28.2317 15.8015 29.6616 10.9582 23.3566 8.3633C22.8015 8.13484 22.5261 7.48965 22.6521 6.90273C23.5321 2.80122 19.1114 -1.62079 15.7996 2.91288C15.3932 3.46917 14.5213 3.63351 13.9208 3.2959C12.7314 2.62722 11.0118 2.03432 10 2.57368" stroke="#96B87D" stroke-width="2" stroke-linecap="round"/>
<path d="M15 24.9752C10.1903 25.2273 1.96137 23.6623 6.46004 15.5448C6.67991 15.1481 6.63028 14.651 6.34326 14.2998C4.43949 11.9701 2.30581 7.41902 6.10977 4" stroke="#96B87D" stroke-width="2" stroke-linecap="round"/>
</svg>
