<svg width="30" height="30" viewBox="0 0 30 30" fill="none" xmlns="http://www.w3.org/2000/svg">
<g clip-path="url(#clip0_1343_2475)">
<path d="M27.5149 18.4248C27.5149 19.5865 27.0534 20.7005 26.232 21.522C25.4106 22.3434 24.2965 22.8048 23.1349 22.8048C21.9732 22.8048 20.8591 22.3434 20.0377 21.522C19.2163 20.7005 18.7549 19.5865 18.7549 18.4248C18.7549 15.1398 23.1299 9.66357 23.1299 9.66357C23.1299 9.66357 27.5149 15.1398 27.5149 18.4248ZM12.4974 11.5411H4.98736C4.65864 11.5407 4.33308 11.6052 4.02931 11.7309C3.72554 11.8565 3.44954 12.0409 3.2171 12.2733C2.98465 12.5058 2.80033 12.7818 2.67469 13.0855C2.54904 13.3893 2.48454 13.7148 2.48486 14.0436V26.5598C2.48486 27.9423 3.60486 29.0623 4.98736 29.0623H12.4974C12.8261 29.0627 13.1517 28.9981 13.4554 28.8725C13.7592 28.7469 14.0352 28.5625 14.2676 28.3301C14.5001 28.0976 14.6844 27.8216 14.81 27.5179C14.9357 27.2141 15.0002 26.8885 14.9999 26.5598V14.0436C15.0002 13.7148 14.9357 13.3893 14.81 13.0855C14.6844 12.7818 14.5001 12.5058 14.2676 12.2733C14.0352 12.0409 13.7592 11.8565 13.4554 11.7309C13.1517 11.6052 12.8261 11.5407 12.4974 11.5411Z" stroke="#96B87D" stroke-width="2" stroke-linecap="round" stroke-linejoin="round"/>
<path d="M17.5001 3.44L16.9413 2.32125C16.7339 1.90562 16.4148 1.556 16.0198 1.31158C15.6249 1.06717 15.1696 0.937632 14.7051 0.9375H3.73633M8.74258 17.7988V22.805M6.24008 20.3025H11.2451M8.74258 0.9375V7.7875M5.95758 7.7875H11.5276C11.6551 7.78717 11.7814 7.81198 11.8993 7.8605C12.0172 7.90902 12.1243 7.98031 12.2146 8.07028C12.305 8.16025 12.3767 8.26715 12.4256 8.38485C12.4746 8.50256 12.4999 8.62876 12.5001 8.75625V11.5412H4.98758V8.75625C4.98791 8.49921 5.09025 8.2528 5.27213 8.07116C5.454 7.88952 5.70053 7.7875 5.95758 7.7875Z" stroke="#96B87D" stroke-width="2" stroke-linecap="round" stroke-linejoin="round"/>
</g>
<defs>
<clipPath id="clip0_1343_2475">
<rect width="30" height="30" fill="white"/>
</clipPath>
</defs>
</svg>
