<svg width="28" height="28" viewBox="0 0 28 28" fill="none" xmlns="http://www.w3.org/2000/svg">
<path d="M6.5 17.125V25.25C6.5 25.5815 6.3683 25.8995 6.13388 26.1339C5.89946 26.3683 5.58152 26.5 5.25 26.5H2.75C2.41848 26.5 2.10054 26.3683 1.86612 26.1339C1.6317 25.8995 1.5 25.5815 1.5 25.25V17.125C1.5 16.7935 1.6317 16.4755 1.86612 16.2411C2.10054 16.0067 2.41848 15.875 2.75 15.875H5.25C5.58152 15.875 5.89946 16.0067 6.13388 16.2411C6.3683 16.4755 6.5 16.7935 6.5 17.125ZM6.5 17.125H13.6875C14.1019 17.125 14.4993 17.2896 14.7924 17.5826C15.0854 17.8757 15.25 18.2731 15.25 18.6875C15.25 19.1019 15.0854 19.4993 14.7924 19.7924C14.4993 20.0854 14.1019 20.25 13.6875 20.25H10.875" stroke="#96B87D" stroke-width="2" stroke-linecap="round" stroke-linejoin="round"/>
<path d="M12.75 20.25H17.365C18.4272 20.2498 19.4618 19.9114 20.3188 19.2837L23.605 16.8775C23.9505 16.6101 24.3815 16.4775 24.8175 16.5044C25.2536 16.5313 25.665 16.7159 25.975 17.0237C26.1502 17.1987 26.2872 17.4081 26.3773 17.6387C26.4673 17.8693 26.5085 18.1162 26.4982 18.3635C26.4878 18.6109 26.4262 18.8535 26.3172 19.0758C26.2082 19.2981 26.0542 19.4953 25.865 19.655L20.3687 24.1275C19.477 24.8535 18.3624 25.2499 17.2125 25.25H6.5M22.75 7.75C22.75 9.4076 22.0915 10.9973 20.9194 12.1694C19.7473 13.3415 18.1576 14 16.5 14C14.8424 14 13.2527 13.3415 12.0806 12.1694C10.9085 10.9973 10.25 9.4076 10.25 7.75C10.25 6.0924 10.9085 4.50269 12.0806 3.33058C13.2527 2.15848 14.8424 1.5 16.5 1.5C18.1576 1.5 19.7473 2.15848 20.9194 3.33058C22.0915 4.50269 22.75 6.0924 22.75 7.75Z" stroke="#96B87D" stroke-width="2" stroke-linecap="round" stroke-linejoin="round"/>
</svg>
