<svg width="199" height="68" viewBox="0 0 199 68" fill="none" xmlns="http://www.w3.org/2000/svg">
<path d="M100.95 7.33789C98.5974 7.33789 96.3293 7.72761 94.1748 8.43581C95.3657 8.13828 96.586 7.92038 97.8315 7.7779C98.8457 7.49713 99.885 7.33789 100.95 7.33789Z" fill="#285A8B"/>
<path d="M78.3397 47.4534L74.279 37.7229L63.9988 13.2376L54.6234 35.129L49.3046 47.4534H43.9814L64.1125 1.94824L83.7217 47.4534H78.3397Z" fill="#6D6E71"/>
<path d="M16.6636 22.5953V3.98926H11.8076V47.4201H16.6636V28.7009L17.8797 27.4898L35.7511 47.4201H42.4628L21.2924 24.2086L41.7685 3.98926H35.2335L16.6636 22.5953Z" fill="#6D6E71"/>
<path d="M90.4966 8.48152H91.9442C97.7849 8.48152 103.049 9.17296 103.049 16.3178C103.049 23.0562 97.4987 24.0955 91.9989 24.0955H90.4966V8.48152ZM90.4966 28.3531H91.7127L91.9105 27.3264H97.869L96.9769 27.9508C103.684 27.3767 107.909 22.654 107.909 15.97C107.909 6.17672 100.217 3.98926 91.9442 3.98926H85.6406V47.4201H90.5009V28.3531H90.4966Z" fill="#6D6E71"/>
<path d="M127.401 8.48152H138.047V3.98926H112.017V8.48152H122.545V47.4201H127.401V8.48152Z" fill="#6D6E71"/>
<path d="M57.582 30.3307C63.4269 26.3958 70.8751 23.7851 79.1101 23.2152C98.7825 21.8449 115.635 32.6146 117.31 47.4156C110.981 34.5338 94.6376 25.6876 74.1236 27.1124C68.8552 27.4811 62.1982 28.8263 57.582 30.3307Z" fill="#5EAC41"/>
<path d="M116.479 50.7148H118.36L122.123 57.0222H122.282L126.045 50.7148H127.927L123.024 58.6584V64.2268H121.381V58.6584L116.479 50.7148Z" fill="#6D6E71"/>
<path d="M113.474 54.9375C113.328 54.4932 113.136 54.0952 112.898 53.7433C112.664 53.387 112.383 53.0835 112.056 52.8328C111.734 52.5821 111.367 52.3908 110.957 52.2588C110.546 52.1269 110.095 52.0609 109.605 52.0609C108.801 52.0609 108.07 52.2676 107.412 52.6811C106.754 53.0945 106.231 53.7037 105.842 54.5086C105.453 55.3135 105.259 56.301 105.259 57.471C105.259 58.6409 105.456 59.6284 105.849 60.4333C106.242 61.2382 106.774 61.8474 107.445 62.2608C108.117 62.6743 108.872 62.881 109.711 62.881C110.488 62.881 111.173 62.7161 111.765 62.3862C112.361 62.0519 112.825 61.5813 113.156 60.9743C113.492 60.3629 113.66 59.6438 113.66 58.8169L114.163 58.9224H110.082V57.471H115.25V58.9224C115.25 60.0352 115.011 61.0029 114.534 61.8254C114.061 62.6479 113.408 63.2857 112.573 63.7387C111.743 64.1873 110.789 64.4116 109.711 64.4116C108.51 64.4116 107.454 64.1302 106.544 63.5672C105.639 63.0042 104.932 62.2036 104.424 61.1656C103.921 60.1276 103.669 58.896 103.669 57.471C103.669 56.4021 103.812 55.4411 104.1 54.5878C104.391 53.7301 104.802 53 105.332 52.3974C105.862 51.7948 106.489 51.333 107.213 51.0119C107.938 50.6908 108.735 50.5303 109.605 50.5303C110.321 50.5303 110.987 50.638 111.606 50.8536C112.229 51.0647 112.783 51.366 113.269 51.7574C113.759 52.1445 114.167 52.6085 114.494 53.1495C114.821 53.6861 115.046 54.2821 115.17 54.9375H113.474Z" fill="#6D6E71"/>
<path d="M101.436 57.471C101.436 58.896 101.178 60.1276 100.661 61.1656C100.144 62.2036 99.4354 63.0042 98.5344 63.5672C97.6333 64.1302 96.6043 64.4116 95.4471 64.4116C94.2899 64.4116 93.2608 64.1302 92.3598 63.5672C91.4588 63.0042 90.7499 62.2036 90.2331 61.1656C89.7164 60.1276 89.458 58.896 89.458 57.471C89.458 56.0459 89.7164 54.8143 90.2331 53.7763C90.7499 52.7383 91.4588 51.9378 92.3598 51.3748C93.2608 50.8118 94.2899 50.5303 95.4471 50.5303C96.6043 50.5303 97.6333 50.8118 98.5344 51.3748C99.4354 51.9378 100.144 52.7383 100.661 53.7763C101.178 54.8143 101.436 56.0459 101.436 57.471ZM99.8461 57.471C99.8461 56.301 99.6496 55.3135 99.2565 54.5086C98.8678 53.7037 98.34 53.0945 97.6731 52.6811C97.0106 52.2676 96.2686 52.0609 95.4471 52.0609C94.6256 52.0609 93.8813 52.2676 93.2144 52.6811C92.5519 53.0945 92.0241 53.7037 91.631 54.5086C91.2424 55.3135 91.048 56.301 91.048 57.471C91.048 58.6409 91.2424 59.6284 91.631 60.4333C92.0241 61.2382 92.5519 61.8474 93.2144 62.2608C93.8813 62.6743 94.6256 62.881 95.4471 62.881C96.2686 62.881 97.0106 62.6743 97.6731 62.2608C98.34 61.8474 98.8678 61.2382 99.2565 60.4333C99.6496 59.6284 99.8461 58.6409 99.8461 57.471Z" fill="#6D6E71"/>
<path d="M80.0225 64.2268V50.7148H81.6655V62.7753H87.9725V64.2268H80.0225Z" fill="#6D6E71"/>
<path d="M77.2594 57.471C77.2594 58.896 77.001 60.1276 76.4842 61.1656C75.9675 62.2036 75.2586 63.0042 74.3576 63.5672C73.4566 64.1302 72.4275 64.4116 71.2703 64.4116C70.1131 64.4116 69.084 64.1302 68.183 63.5672C67.282 63.0042 66.5731 62.2036 66.0564 61.1656C65.5396 60.1276 65.2812 58.896 65.2812 57.471C65.2812 56.0459 65.5396 54.8143 66.0564 53.7763C66.5731 52.7383 67.282 51.9378 68.183 51.3748C69.084 50.8118 70.1131 50.5303 71.2703 50.5303C72.4275 50.5303 73.4566 50.8118 74.3576 51.3748C75.2586 51.9378 75.9675 52.7383 76.4842 53.7763C77.001 54.8143 77.2594 56.0459 77.2594 57.471ZM75.6694 57.471C75.6694 56.301 75.4728 55.3135 75.0797 54.5086C74.6911 53.7037 74.1633 53.0945 73.4963 52.6811C72.8338 52.2676 72.0918 52.0609 71.2703 52.0609C70.4488 52.0609 69.7046 52.2676 69.0377 52.6811C68.3752 53.0945 67.8474 53.7037 67.4543 54.5086C67.0656 55.3135 66.8713 56.301 66.8713 57.471C66.8713 58.6409 67.0656 59.6284 67.4543 60.4333C67.8474 61.2382 68.3752 61.8474 69.0377 62.2608C69.7046 62.6743 70.4488 62.881 71.2703 62.881C72.0918 62.881 72.8338 62.6743 73.4963 62.2608C74.1633 61.8474 74.6911 61.2382 75.0797 60.4333C75.4728 59.6284 75.6694 58.6409 75.6694 57.471Z" fill="#6D6E71"/>
<path d="M56.5894 64.2268H52.4023V50.7148H56.7749C58.0911 50.7148 59.2173 50.9853 60.1537 51.5264C61.09 52.063 61.8077 52.8349 62.3068 53.8421C62.8059 54.8449 63.0555 56.0457 63.0555 57.4444C63.0555 58.8519 62.8037 60.0637 62.3002 61.0797C61.7967 62.0913 61.0635 62.8698 60.1007 63.4152C59.1378 63.9563 57.9674 64.2268 56.5894 64.2268ZM54.0454 62.7753H56.4834C57.6052 62.7753 58.535 62.5598 59.2725 62.1287C60.0101 61.6977 60.56 61.0841 60.9222 60.288C61.2844 59.4919 61.4654 58.544 61.4654 57.4444C61.4654 56.3536 61.2866 55.4145 60.9288 54.6272C60.5711 53.8355 60.0366 53.2285 59.3255 52.8063C58.6145 52.3796 57.7289 52.1663 56.6689 52.1663H54.0454V62.7753Z" fill="#6D6E71"/>
<path d="M49.6402 57.471C49.6402 58.896 49.3819 60.1276 48.8651 61.1656C48.3484 62.2036 47.6395 63.0042 46.7385 63.5672C45.8374 64.1302 44.8084 64.4116 43.6512 64.4116C42.494 64.4116 41.4649 64.1302 40.5639 63.5672C39.6629 63.0042 38.954 62.2036 38.4372 61.1656C37.9205 60.1276 37.6621 58.896 37.6621 57.471C37.6621 56.0459 37.9205 54.8143 38.4372 53.7763C38.954 52.7383 39.6629 51.9378 40.5639 51.3748C41.4649 50.8118 42.494 50.5303 43.6512 50.5303C44.8084 50.5303 45.8374 50.8118 46.7385 51.3748C47.6395 51.9378 48.3484 52.7383 48.8651 53.7763C49.3819 54.8143 49.6402 56.0459 49.6402 57.471ZM48.0502 57.471C48.0502 56.301 47.8537 55.3135 47.4606 54.5086C47.0719 53.7037 46.5441 53.0945 45.8772 52.6811C45.2147 52.2676 44.4727 52.0609 43.6512 52.0609C42.8297 52.0609 42.0854 52.2676 41.4185 52.6811C40.756 53.0945 40.2282 53.7037 39.8351 54.5086C39.4465 55.3135 39.2521 56.301 39.2521 57.471C39.2521 58.6409 39.4465 59.6284 39.8351 60.4333C40.2282 61.2382 40.756 61.8474 41.4185 62.2608C42.0854 62.6743 42.8297 62.881 43.6512 62.881C44.4727 62.881 45.2147 62.6743 45.8772 62.2608C46.5441 61.8474 47.0719 61.2382 47.4606 60.4333C47.8537 59.6284 48.0502 58.6409 48.0502 57.471Z" fill="#6D6E71"/>
<path d="M26.3496 64.2268V50.7148H30.9342C31.9986 50.7148 32.8687 50.9062 33.5444 51.2888C34.2246 51.6671 34.7281 52.1795 35.055 52.8261C35.3818 53.4726 35.5452 54.194 35.5452 54.9901C35.5452 55.7862 35.3818 56.5097 35.055 57.1607C34.7325 57.8117 34.2334 58.3307 33.5577 58.7177C32.8819 59.1004 32.0163 59.2917 30.9607 59.2917H27.6746V57.8403H30.9077C31.6364 57.8403 32.2216 57.7149 32.6633 57.4642C33.105 57.2135 33.4252 56.8748 33.6239 56.4482C33.8271 56.0171 33.9287 55.5311 33.9287 54.9901C33.9287 54.4491 33.8271 53.9653 33.6239 53.5386C33.4252 53.112 33.1028 52.7777 32.6567 52.5358C32.2106 52.2895 31.6188 52.1663 30.8812 52.1663H27.9926V64.2268H26.3496Z" fill="#6D6E71"/>
<path d="M157.029 55.4574C155.763 54.9378 154.075 51.3549 153.894 49.5278C153.713 47.7049 152.329 39.1562 150.835 34.3916C149.291 29.4677 154.307 23.7853 159.243 24.1205C160.905 24.2337 164.528 24.4767 163.951 28.7553C163.884 29.254 163.754 29.6688 163.594 30.046C164.469 29.2623 165.142 28.2482 165.365 26.6013C166.055 21.4679 161.713 21.1788 159.718 21.0447C153.798 20.6382 147.789 27.4562 149.636 33.3565C151.424 39.0682 153.086 49.3183 153.305 51.5016C153.52 53.689 155.119 56.4464 156.634 57.0708C163.88 60.0461 165.21 52.8886 164.01 49.4272C163.661 48.4215 162.946 47.5457 162.092 46.7034C162.685 47.3823 163.165 48.0569 163.404 48.7274C164.911 52.9599 163.076 57.9382 157.029 55.4574Z" fill="#5EAC41"/>
<path d="M157.16 41.679C155.254 38.6031 158.797 33.3272 160.804 31.9779C161.776 31.3242 162.778 30.7878 163.598 30.046C163.754 29.6689 163.884 29.254 163.956 28.7553C164.532 24.4726 160.909 24.2337 159.247 24.1206C154.307 23.7854 149.295 29.4677 150.839 34.3916C152.333 39.1563 153.718 47.705 153.899 49.5279C154.08 51.355 155.767 54.9337 157.034 55.4533C163.08 57.9341 164.915 52.9599 163.417 48.7275C163.177 48.057 162.698 47.3823 162.104 46.7035C160.505 45.1362 158.401 43.6821 157.16 41.679Z" fill="#5EAC41"/>
<path d="M159.495 18.5722C158.737 16.8164 160 14.2308 161.207 14.1135C162.44 13.9961 163.189 15.0605 163.492 15.6137C163.438 15.3371 163.366 15.0396 163.273 14.7211C163.273 14.7211 162.419 12.5714 160.618 12.7432C159.049 12.8898 157.386 16.8709 159.495 18.5722Z" fill="#5EAC41"/>
<path d="M157.475 15.4926C157.783 15.677 158.01 15.9201 158.178 16.1883C158.098 15.434 157.762 14.7048 157.025 14.2648C155.544 13.3806 153.507 16.557 155.371 18.2584C154.879 16.6995 156.348 14.8221 157.475 15.4926Z" fill="#5EAC41"/>
<path d="M153.448 20.5798C152.956 19.5196 153.263 18.0068 154.345 18.2959C154.618 18.3672 154.833 18.5096 155.005 18.6856C154.862 18.0654 154.488 17.5081 153.798 17.3237C152.304 16.9172 152.169 19.683 153.448 20.5798Z" fill="#5EAC41"/>
<path d="M151.323 23.1571C150.839 22.3693 151.025 20.5883 151.673 20.5254C152.131 20.4793 152.455 20.6176 152.674 20.8523C152.51 20.2824 152.068 19.8508 151.269 19.9304C150.41 20.01 150.297 22.8386 151.323 23.1571Z" fill="#5EAC41"/>
<path d="M149.228 24.6276C149.459 22.8927 150.296 22.8382 150.835 24.0284L150.81 23.8901C150.174 21.8702 148.916 21.6984 148.601 24.0996C148.542 24.5522 148.685 25.3945 149.488 25.537C149.244 25.2813 149.194 24.879 149.228 24.6276Z" fill="#5EAC41"/>
<path d="M159.162 21.0323C154.151 21.0701 149.261 26.0945 149.303 31.1777C149.307 31.911 149.417 32.6443 149.644 33.3609C151.432 39.0726 153.094 49.3227 153.313 51.506C153.528 53.6935 155.127 56.4508 156.642 57.0752C157.858 57.5739 158.91 57.7876 159.81 57.7834C163.177 57.7583 164.431 54.6489 164.41 51.8873C164.401 50.9947 164.262 50.1399 164.023 49.4359C163.673 48.4301 162.958 47.5543 162.099 46.712C162.693 47.3909 163.173 48.0656 163.412 48.736C163.417 48.7486 163.421 48.757 163.425 48.7696C164.624 52.1932 163.635 56.0946 160 56.124H159.996H159.991C159.145 56.1282 158.161 55.927 157.025 55.4577C155.758 54.938 154.071 51.3551 153.89 49.5322C153.709 47.7094 152.324 39.1606 150.831 34.396C150.822 34.3625 150.809 34.3289 150.801 34.2912C149.408 29.5517 154.02 24.1501 158.763 24.1082H158.771C158.914 24.1082 159.053 24.1124 159.196 24.1208C159.213 24.1208 159.225 24.125 159.242 24.125C160.778 24.2297 163.985 24.4434 164.014 27.8504C164.014 28.1311 163.997 28.4328 163.951 28.7597C163.884 29.2584 163.753 29.6732 163.593 30.0504C164.469 29.2668 165.142 28.2527 165.365 26.6058C165.415 26.216 165.441 25.8515 165.436 25.5162C165.403 21.4304 161.557 21.1748 159.718 21.0491C159.537 21.0365 159.347 21.0281 159.162 21.0323Z" fill="#6D6E71"/>
<path d="M164.014 27.8464C164.014 28.1271 163.997 28.4289 163.951 28.7557C163.884 29.2544 163.753 29.6693 163.593 30.0464C163.749 29.6693 163.884 29.2544 163.951 28.7557C163.997 28.4289 164.018 28.1271 164.014 27.8464ZM163.425 48.7656C164.624 52.1893 163.635 56.0907 160 56.12C163.635 56.0907 164.62 52.1934 163.425 48.7656Z" fill="#6D6E71"/>
<path d="M160.808 12.7344C160.745 12.7344 160.682 12.7386 160.619 12.7428C159.575 12.8392 158.489 14.6411 158.502 16.3341C158.506 17.1848 158.792 18.0061 159.495 18.5719C159.339 18.2115 159.268 17.8176 159.264 17.4153C159.251 15.8606 160.244 14.2053 161.208 14.1131C161.267 14.1089 161.326 14.1047 161.38 14.1047C162.512 14.0964 163.207 15.0853 163.497 15.6133C163.438 15.3368 163.371 15.0392 163.274 14.7208C163.274 14.7166 162.479 12.7219 160.808 12.7344Z" fill="#6D6E71"/>
<path d="M156.474 14.1135C155.544 14.1219 154.61 15.3414 154.622 16.5943C154.626 17.1852 154.841 17.7803 155.371 18.2622C155.304 18.0568 155.274 17.8473 155.27 17.6336C155.262 16.4854 156.116 15.3623 156.97 15.3539C157.139 15.3498 157.311 15.3958 157.475 15.4922C157.782 15.6766 158.01 15.9197 158.178 16.1879C158.098 15.4336 157.761 14.7044 157.025 14.2644C156.844 14.1554 156.659 14.1094 156.474 14.1135Z" fill="#6D6E71"/>
<path d="M153.507 17.2812C152.885 17.2854 152.569 17.935 152.573 18.6809C152.577 19.3849 152.868 20.1727 153.449 20.5792C153.301 20.2565 153.226 19.8962 153.221 19.5525C153.217 18.8653 153.503 18.2618 154.08 18.2576C154.164 18.2576 154.252 18.2702 154.345 18.2954C154.618 18.3708 154.833 18.5091 155.001 18.6851C154.858 18.0649 154.484 17.5033 153.794 17.319C153.693 17.2938 153.596 17.2812 153.507 17.2812Z" fill="#6D6E71"/>
<path d="M151.441 19.917C151.386 19.917 151.327 19.9212 151.269 19.9254C150.827 19.9673 150.583 20.7342 150.591 21.5136C150.595 22.2512 150.822 23.0013 151.323 23.1563C151.142 22.8588 151.054 22.423 151.05 21.9872C151.045 21.2706 151.269 20.5624 151.672 20.5247C151.727 20.5205 151.778 20.5163 151.828 20.5163C152.203 20.5121 152.48 20.6462 152.674 20.8515C152.523 20.3235 152.135 19.9128 151.441 19.917Z" fill="#6D6E71"/>
<path d="M149.589 22.3399C149.156 22.3441 148.76 22.9014 148.601 24.1041C148.592 24.1669 148.588 24.234 148.588 24.3094C148.592 24.7746 148.794 25.4199 149.488 25.5456C149.291 25.3319 149.223 25.0344 149.219 24.7913C149.219 24.7327 149.223 24.6782 149.228 24.6279C149.354 23.6641 149.669 23.2199 150.019 23.2157C150.296 23.2157 150.595 23.4965 150.835 24.0287L150.81 23.8904C150.494 22.8846 150.019 22.3357 149.589 22.3399Z" fill="#6D6E71"/>
<path d="M161.208 14.1131C160 14.2262 158.734 16.816 159.495 18.5718C159.815 18.8274 160.215 19.037 160.716 19.1669C160.716 19.1669 164.41 20.1139 163.493 15.6133C163.19 15.0601 162.441 13.9915 161.208 14.1131Z" fill="#5EAC41"/>
<path d="M157.475 15.492C156.348 14.8215 154.879 16.7031 155.371 18.2578C155.657 18.5176 156.024 18.7439 156.503 18.9157C157.463 19.2593 158.334 17.6753 158.178 16.1877C158.005 15.9153 157.782 15.6764 157.475 15.492Z" fill="#5EAC41"/>
<path d="M154.344 18.2958C153.267 18.0067 152.956 19.5195 153.448 20.5797C153.646 20.718 153.873 20.8143 154.142 20.8437C154.824 20.9191 155.236 19.7206 155.001 18.6855C154.828 18.5095 154.614 18.3671 154.344 18.2958Z" fill="#5EAC41"/>
<path d="M151.323 23.1564L151.588 23.1857C152.459 23.1061 152.939 21.7861 152.674 20.8474C152.455 20.6127 152.127 20.4744 151.672 20.5205C151.024 20.5876 150.839 22.3686 151.323 23.1564Z" fill="#5EAC41"/>
<path d="M149.227 24.6276C149.193 24.879 149.244 25.2813 149.488 25.5411C149.61 25.562 149.745 25.5704 149.896 25.5579C149.896 25.5579 151.121 25.2687 150.835 24.0325C150.296 22.8424 149.454 22.8927 149.227 24.6276Z" fill="#5EAC41"/>
<path d="M174.602 11.2768C172.603 11.2013 168.257 11.0211 168.387 16.1965C168.467 19.4148 170.495 20.475 172.347 22.0297C174.198 23.5844 177.148 29.2123 174.918 32.0661C172.688 34.9198 168.564 36.2734 167.255 39.0391C165.69 42.3497 166.237 49.6035 173.765 47.4286C175.339 46.9718 177.228 44.403 177.678 42.2491C178.129 40.0993 180.893 30.0923 183.292 24.6027C185.766 18.9329 180.536 11.5114 174.602 11.2768Z" fill="#5EAC41"/>
<path d="M173.82 9.3035C173.82 9.3035 169.557 9.9237 171.758 4.60589C171.758 4.60589 172.839 2.5651 174.611 2.92548C176.387 3.29006 177.75 8.72101 173.82 9.3035Z" fill="#5EAC41"/>
<path d="M182.459 14.2814C181.078 14.0006 181.049 10.6398 183.132 11.0714C184.045 11.26 183.746 14.5454 182.459 14.2814Z" fill="#5EAC41"/>
<path d="M183.885 16.8174C183.885 16.8174 182.589 16.3774 183.162 15.0658C184.012 13.1256 185.282 13.092 185.337 15.5142C185.345 16.038 185.034 17.0563 183.885 16.8174Z" fill="#5EAC41"/>
<path d="M175.162 11.3232C174.977 11.3022 174.792 11.2897 174.603 11.2813C172.755 11.21 168.905 11.0508 168.434 15.1114C168.909 11.055 172.759 11.21 174.603 11.2813C174.792 11.2855 174.977 11.298 175.162 11.3232C175.667 11.3818 176.164 11.4908 176.652 11.6458C176.168 11.4908 175.667 11.3818 175.162 11.3232ZM176.656 11.6458C176.664 11.6458 176.673 11.65 176.681 11.6542C176.669 11.65 176.664 11.6458 176.656 11.6458ZM176.69 11.6542C176.694 11.6542 176.698 11.6584 176.702 11.6584C176.698 11.6584 176.694 11.6584 176.69 11.6542ZM176.719 11.6668C176.719 11.6668 176.723 11.6668 176.723 11.671C176.723 11.6668 176.723 11.6668 176.719 11.6668ZM177.687 42.2159C177.687 42.2201 177.687 42.2201 177.687 42.2159C177.683 42.2285 177.683 42.2368 177.679 42.2452L177.687 42.2159Z" fill="#828285"/>
<path d="M175.162 11.3232C174.977 11.3022 174.791 11.2897 174.602 11.2813C172.755 11.21 168.904 11.0508 168.433 15.1114C168.395 15.4467 168.378 15.8071 168.387 16.201C168.467 19.4193 170.495 20.4795 172.347 22.0342C173.832 23.283 176.029 27.1551 175.684 30.1094C175.599 30.8344 175.359 31.5049 174.922 32.0664C172.692 34.9201 168.564 36.2737 167.259 39.0395C166.944 39.7099 166.712 40.5481 166.607 41.4323C166.287 44.1729 167.196 47.4038 170.541 47.7893C171.433 47.8941 172.502 47.7935 173.769 47.4289C175.343 46.9722 177.232 44.4034 177.682 42.2494C177.687 42.241 177.687 42.2327 177.687 42.2243C176.87 43.7203 175.726 45.187 174.888 45.43C173.706 45.7737 172.7 45.8659 171.863 45.7695C168.235 45.3504 167.684 41.3401 169.271 38.0589C170.377 35.7624 174.48 33.7636 176.34 31.3791C178.2 28.9989 175.738 24.3055 174.194 23.0106C172.654 21.7115 170.958 20.8315 170.895 18.1412C170.785 13.8249 174.413 13.9716 176.079 14.0387C176.235 14.047 176.395 14.0596 176.546 14.0764C180.447 14.5289 183.851 18.6231 183.839 22.6041C184.453 18.0574 181.049 13.0874 176.731 11.671C176.731 11.671 176.727 11.671 176.723 11.6668C176.714 11.6668 176.71 11.6626 176.702 11.6584C176.698 11.6584 176.693 11.6584 176.689 11.6542C176.685 11.6542 176.685 11.65 176.681 11.65C176.672 11.65 176.668 11.6458 176.66 11.6417C176.167 11.4908 175.667 11.3818 175.162 11.3232Z" fill="#6D6E71"/>
<path d="M183.835 22.6005C183.847 18.4561 180.165 14.1985 176.075 14.035C174.409 13.968 170.786 13.8213 170.891 18.1376C170.958 20.8279 172.65 21.7079 174.194 23.007C175.738 24.3019 178.2 28.9953 176.34 31.3755C174.48 33.7557 170.377 35.7588 169.267 38.0552C167.314 42.0991 168.606 47.2451 174.884 45.4264C175.726 45.1834 176.87 43.7167 177.687 42.2206C178.154 40.0206 180.902 30.0681 183.292 24.6036C183.574 23.954 183.742 23.2794 183.835 22.6005Z" fill="#5EAC41"/>
<path d="M174.426 2.89599C172.763 2.70741 171.762 4.60573 171.762 4.60573C171.758 4.60573 172.763 2.70741 174.426 2.89599ZM174.615 2.92532C174.619 2.92532 174.623 2.92532 174.623 2.92532C174.619 2.92951 174.619 2.92532 174.615 2.92532ZM174.628 2.92951C174.632 2.92951 174.632 2.92951 174.632 2.92951H174.628ZM174.644 2.9337C174.724 2.95465 174.8 2.9798 174.88 3.0217C174.804 2.9798 174.724 2.95465 174.644 2.9337ZM174.884 3.0217L174.888 3.02589C174.888 3.0217 174.884 3.0217 174.884 3.0217ZM171.749 4.63506C171.749 4.63506 171.749 4.63925 171.745 4.64344C171.745 4.63925 171.745 4.63506 171.749 4.63506Z" fill="#828285"/>
<path d="M174.429 2.89599H174.425C172.763 2.70741 171.762 4.60573 171.762 4.60573C171.757 4.60992 171.757 4.6183 171.753 4.62249C171.753 4.62668 171.749 4.63087 171.749 4.63087C171.749 4.63506 171.745 4.63925 171.745 4.63925C170.63 7.35054 171.21 8.50294 172.039 8.98485C171.698 8.35627 171.661 7.31282 172.38 5.57375C172.38 5.57375 173.306 3.82629 174.833 4.00229C174.888 4.01067 174.947 4.01905 175.006 4.02743C175.515 4.1322 175.986 4.68954 176.285 5.42289C176.092 4.33753 175.549 3.36533 174.905 3.02589C174.901 3.02589 174.901 3.0217 174.897 3.0217C174.892 3.0217 174.892 3.01751 174.892 3.01751C174.888 3.01751 174.884 3.01332 174.884 3.01332C174.804 2.97561 174.728 2.94627 174.648 2.92532C174.644 2.92532 174.64 2.92113 174.64 2.92113C174.636 2.92113 174.636 2.92113 174.631 2.92113C174.627 2.92113 174.623 2.92113 174.619 2.92113C174.552 2.91275 174.488 2.90437 174.429 2.89599Z" fill="#6D6E71"/>
<path d="M173.82 9.30391C176.054 8.97286 176.576 7.07035 176.285 5.42765C175.987 4.69431 175.515 4.13696 175.006 4.0322C173.378 3.69696 172.38 5.57851 172.38 5.57851C171.657 7.31759 171.699 8.36104 172.04 8.98962C172.818 9.44639 173.82 9.30391 173.82 9.30391Z" fill="#5EAC41"/>
<path d="M180.173 11.6751C179.075 11.6793 179.016 8.49869 180.901 8.20954C182.66 7.93715 182.176 11.6667 180.173 11.6751Z" fill="#5EAC41"/>
<path d="M181.188 8.20107C181.167 8.19688 181.15 8.19688 181.129 8.19688C181.058 8.19269 180.982 8.19688 180.902 8.20946C180.898 8.20946 180.893 8.20946 180.893 8.20946C180.889 8.20946 180.889 8.20946 180.885 8.20946C180.881 8.20946 180.877 8.20946 180.877 8.20946C180.872 8.20946 180.872 8.20946 180.868 8.20946C180.868 8.20946 180.86 8.20946 180.86 8.21365C179.248 8.51118 179.105 10.9668 179.837 11.5451C179.677 11.3105 179.589 10.9962 179.589 10.6651C179.576 9.88567 180.001 9.00985 181.058 8.92604C181.112 8.92185 181.163 8.92185 181.217 8.92604C181.563 8.96794 181.819 9.22357 181.992 9.4289C181.988 8.80451 181.735 8.26393 181.188 8.20107Z" fill="#6D6E71"/>
<path d="M181.983 9.43805C181.785 9.20338 181.478 8.90166 181.053 8.93518C179.538 9.05671 179.323 10.8042 179.833 11.5501C179.934 11.6297 180.047 11.6758 180.178 11.6758C181.322 11.6716 181.97 10.4354 181.983 9.43805Z" fill="#5EAC41"/>
<path d="M182.964 11.0466C182.468 10.9879 182.106 11.1597 181.862 11.4531C182.101 11.1597 182.468 10.9879 182.964 11.0466C183.019 11.055 183.078 11.0634 183.132 11.0717C183.073 11.0592 183.019 11.0508 182.964 11.0466Z" fill="#828285"/>
<path d="M182.964 11.0466C182.467 10.9879 182.101 11.1597 181.861 11.4531V11.4573C181.861 11.4573 181.861 11.4573 181.857 11.4573C181.407 12.0104 181.382 12.9784 181.706 13.6322C181.706 13.6196 181.702 13.6028 181.697 13.5903C181.563 12.706 181.958 11.671 183.027 11.7925H183.031C183.082 11.7967 183.132 11.8051 183.187 11.8177C183.439 11.8721 183.591 12.1822 183.65 12.5845C183.704 11.8596 183.54 11.1639 183.136 11.0759H183.128C183.073 11.0634 183.019 11.0508 182.964 11.0466Z" fill="#6D6E71"/>
<path d="M182.459 14.2822C183.174 14.4289 183.582 13.486 183.65 12.5851C183.595 12.1828 183.443 11.8685 183.191 11.814C181.983 11.5626 181.55 12.6898 181.71 13.6285C181.87 13.9638 182.122 14.2152 182.459 14.2822Z" fill="#5EAC41"/>
<path d="M184.537 13.6532C184.133 13.6112 183.641 14.0471 183.233 14.9103C183.637 14.0513 184.129 13.6112 184.537 13.6532ZM183.216 14.9396C183.216 14.9438 183.212 14.9438 183.212 14.948C183.212 14.9438 183.216 14.9396 183.216 14.9396ZM183.199 14.9732V14.9774C183.199 14.9774 183.199 14.9774 183.199 14.9732ZM183.182 15.0109C183.178 15.0151 183.178 15.0193 183.174 15.0235C183.178 15.0193 183.182 15.0151 183.182 15.0109ZM185.333 15.5263V15.5305C185.333 15.5305 185.333 15.5305 185.333 15.5263ZM185.333 15.5347C185.333 15.5389 185.333 15.5431 185.333 15.5473C185.333 15.5389 185.333 15.5347 185.333 15.5347ZM183.885 16.817C183.906 16.8212 183.931 16.8254 183.952 16.8296C183.927 16.8254 183.906 16.8212 183.885 16.817Z" fill="#828285"/>
<path d="M184.541 13.6532H184.537C184.133 13.6112 183.641 14.0471 183.233 14.9061C183.228 14.9145 183.224 14.9271 183.216 14.9355C183.216 14.9396 183.212 14.9396 183.212 14.9438C183.207 14.9522 183.203 14.9648 183.199 14.9732V14.9774C183.195 14.9857 183.191 14.9983 183.186 15.0067C183.182 15.0109 183.182 15.0151 183.178 15.0193C183.174 15.0318 183.165 15.0486 183.161 15.0612C183.085 15.2372 183.039 15.4006 183.022 15.5431C182.913 16.4776 183.885 16.8128 183.885 16.8128C183.906 16.817 183.931 16.8212 183.952 16.8254H183.956C183.982 16.8296 184.007 16.8296 184.028 16.8338C184.121 16.8463 184.209 16.8463 184.289 16.8422C184.234 16.8422 184.175 16.8422 184.116 16.8338C184.074 16.8296 184.032 16.8212 183.99 16.8128C183.99 16.8128 182.947 16.4734 183.376 15.5557C183.696 14.8768 184.104 14.5374 184.449 14.5751C184.798 14.617 185.076 15.0444 185.122 15.9119C185.135 16.1298 185.055 16.4608 184.806 16.6662C185.194 16.398 185.328 15.8909 185.332 15.5473V15.5431C185.332 15.5431 185.332 15.5431 185.332 15.5389V15.5347C185.332 15.5305 185.332 15.5263 185.332 15.5263V15.5221V15.5179C185.332 15.5138 185.332 15.5138 185.332 15.5096C185.332 15.4886 185.332 15.4718 185.328 15.4509C185.328 15.4467 185.328 15.4383 185.328 15.4341C185.328 15.4216 185.328 15.4048 185.328 15.3922C185.282 14.265 184.962 13.7076 184.55 13.6532H184.541Z" fill="#6D6E71"/>
<path d="M184.807 16.6709C184.668 16.7673 184.499 16.8343 184.289 16.8511C184.516 16.8469 184.68 16.7757 184.807 16.6709Z" fill="#221F20"/>
<path d="M185.122 15.9208C185.03 14.1985 184.016 14.1985 183.376 15.5604C182.947 16.4782 183.99 16.8218 183.99 16.8218C184.1 16.8427 184.201 16.8511 184.289 16.8511C184.5 16.8344 184.668 16.7715 184.807 16.6709C185.055 16.4698 185.131 16.1387 185.122 15.9208Z" fill="#5EAC41"/>
<path d="M178.587 4.73157C178.402 4.71061 178.213 4.73576 178.023 4.82376C176.782 5.39367 176.445 6.79751 176.63 7.92476C176.466 6.75141 176.938 5.30567 177.998 4.85309C178.141 4.79023 178.351 4.73995 178.591 4.76928C179.042 4.81957 179.589 5.14224 180.009 6.15635C180.434 7.36323 180.123 8.98078 178.086 9.49203C181.39 8.6623 180.169 4.91595 178.587 4.73157ZM176.912 8.80478C177.123 9.20707 177.417 9.48365 177.762 9.52136C177.851 9.52974 177.943 9.52555 178.036 9.5046L177.779 9.52136C177.396 9.4166 177.106 9.15678 176.912 8.80478ZM178.057 9.49622C178.053 9.49622 178.053 9.49622 178.053 9.50041C178.053 9.50041 178.057 9.50041 178.057 9.49622Z" fill="#828285"/>
<path d="M176.631 7.92871C176.673 8.25138 176.77 8.5531 176.913 8.80873C176.782 8.5531 176.686 8.25138 176.631 7.92871ZM178.07 9.49598C178.066 9.49598 178.062 9.50017 178.057 9.50017C178.062 9.49598 178.066 9.49598 178.07 9.49598ZM178.053 9.50017C178.049 9.50017 178.045 9.50436 178.036 9.50436C178.041 9.50436 178.045 9.50017 178.053 9.50017Z" fill="#5EAC41"/>
<path d="M178.591 4.76932C178.352 4.73999 178.141 4.79028 177.998 4.85314C176.938 5.30991 176.466 6.75564 176.631 7.929C176.685 8.25167 176.782 8.55758 176.912 8.80901C177.11 9.16102 177.396 9.42083 177.779 9.52559L178.036 9.50883C178.04 9.50883 178.049 9.50464 178.053 9.50464H178.057C178.061 9.50464 178.065 9.50464 178.07 9.50045C178.074 9.50045 178.078 9.50045 178.078 9.49626H178.082C180.119 8.98501 180.43 7.37165 180.005 6.16059C179.589 5.14228 179.037 4.8238 178.591 4.76932Z" fill="#6D6E71"/>
<path d="M180.01 6.15619C179.441 5.6617 178.836 5.67427 178.423 5.85866C176.984 6.52076 176.584 9.14405 177.779 9.52119L178.036 9.50443C180.119 9.00576 180.439 7.37563 180.01 6.15619Z" fill="#5EAC41"/>
</svg>
