<svg width="22" height="23" viewBox="0 0 22 23" fill="none" xmlns="http://www.w3.org/2000/svg">
<path d="M5.82959 17.7503V15.1462M5.82959 15.1462V13.5837C5.82959 13.093 5.82959 12.8472 5.99001 12.6941C6.15042 12.542 6.40772 12.542 6.92334 12.542H7.65251C8.40771 12.542 9.02021 13.1253 9.02021 13.8441C9.02021 14.5628 8.40771 15.1462 7.65251 15.1462H5.82959ZM20.4129 12.542H19.0463C18.1869 12.542 17.7567 12.542 17.49 12.7962C17.2233 13.0503 17.2233 13.4597 17.2233 14.2785V15.1462M17.2233 15.1462V17.7503M17.2233 15.1462H19.5015M14.9442 15.1462C14.9442 16.5837 13.7202 17.7503 12.2098 17.7503C11.8692 17.7503 11.6994 17.7503 11.5713 17.6805C11.2681 17.5139 11.2983 17.1753 11.2983 16.8826V13.4097C11.2983 13.117 11.2671 12.7785 11.5713 12.6118C11.6983 12.542 11.8692 12.542 12.2098 12.542C13.7202 12.542 14.9442 13.7087 14.9442 15.1462Z" stroke="#96B87D" stroke-width="2" stroke-linecap="round" stroke-linejoin="round"/>
<path d="M14.1631 21.9168H9.71204C6.31621 21.9168 4.61621 21.9168 3.43704 21.0856C3.10147 20.8502 2.80152 20.5678 2.54642 20.247C1.66309 19.1366 1.66309 17.5387 1.66309 14.3408V11.6897C1.66309 8.60329 1.66309 7.05954 2.15163 5.82725C2.93704 3.84495 4.59746 2.28245 6.70371 1.54287C8.01204 1.0835 9.65059 1.0835 12.9318 1.0835C14.8048 1.0835 15.7423 1.0835 16.4902 1.346C17.6933 1.76891 18.6423 2.66162 19.0912 3.79391C19.3714 4.49808 19.3714 5.38037 19.3714 7.14391V9.41683" stroke="#96B87D" stroke-width="2" stroke-linecap="round" stroke-linejoin="round"/>
<path d="M1.66309 11.5002C1.66309 10.5794 2.02887 9.69628 2.67997 9.04518C3.33108 8.39407 4.21416 8.02829 5.13496 8.02829C5.82871 8.02829 6.64642 8.14912 7.32038 7.96891C7.61487 7.88966 7.88334 7.73438 8.0989 7.51865C8.31445 7.30291 8.4695 7.0343 8.5485 6.73975C8.72871 6.06579 8.60788 5.24808 8.60788 4.55433C8.60815 3.63371 8.97406 2.75089 9.62513 2.10002C10.2762 1.44914 11.1591 1.0835 12.0798 1.0835" stroke="#96B87D" stroke-width="2" stroke-linecap="round" stroke-linejoin="round"/>
</svg>
