<svg width="24" height="25" viewBox="0 0 24 25" fill="none" xmlns="http://www.w3.org/2000/svg">
<path d="M6.25738 3.85986H3.89773C3.27192 3.85986 2.67173 4.10847 2.22921 4.55099C1.78669 4.99351 1.53809 5.59369 1.53809 6.21951V20.3774C1.53809 21.0032 1.78669 21.6034 2.22921 22.0459C2.67173 22.4884 3.27192 22.7371 3.89773 22.7371H10.6192M18.0556 14.4783V19.1976H22.7749M18.0556 10.9388V6.21951C18.0556 5.59369 17.807 4.99351 17.3645 4.55099C16.922 4.10847 16.3218 3.85986 15.696 3.85986H13.3363" stroke="#96B87D" stroke-width="2" stroke-linecap="round" stroke-linejoin="round"/>
<path d="M6.25732 10.9386H10.9766M6.25732 15.6579H9.7968M6.25732 3.85965C6.25732 3.23383 6.50593 2.63365 6.94845 2.19113C7.39097 1.74861 7.99116 1.5 8.61697 1.5H10.9766C11.6024 1.5 12.2026 1.74861 12.6451 2.19113C13.0877 2.63365 13.3363 3.23383 13.3363 3.85965C13.3363 4.48547 13.0877 5.08565 12.6451 5.52817C12.2026 5.97069 11.6024 6.2193 10.9766 6.2193H8.61697C7.99116 6.2193 7.39097 5.97069 6.94845 5.52817C6.50593 5.08565 6.25732 4.48547 6.25732 3.85965ZM13.3363 19.1974C13.3363 20.449 13.8335 21.6494 14.7185 22.5344C15.6036 23.4195 16.8039 23.9167 18.0556 23.9167C19.3072 23.9167 20.5076 23.4195 21.3926 22.5344C22.2777 21.6494 22.7749 20.449 22.7749 19.1974C22.7749 17.9457 22.2777 16.7454 21.3926 15.8603C20.5076 14.9753 19.3072 14.4781 18.0556 14.4781C16.8039 14.4781 15.6036 14.9753 14.7185 15.8603C13.8335 16.7454 13.3363 17.9457 13.3363 19.1974Z" stroke="#96B87D" stroke-width="2" stroke-linecap="round" stroke-linejoin="round"/>
</svg>
