<svg width="23" height="22" viewBox="0 0 23 22" fill="none" xmlns="http://www.w3.org/2000/svg">
<path d="M13.3765 8.90163C14.447 9.77497 14.9818 10.2111 14.9818 10.958C14.9818 11.7049 14.447 12.141 13.3765 13.0144C13.0808 13.2554 12.788 13.4824 12.5181 13.6716C12.2821 13.8379 12.0142 14.0092 11.7374 14.1775C10.6689 14.8268 10.1351 15.1514 9.65611 14.7919C9.17812 14.4334 9.1343 13.6806 9.04667 12.1749C9.02277 11.7497 9.00684 11.3324 9.00684 10.958C9.00684 10.5836 9.02277 10.1663 9.04667 9.74111C9.1343 8.23542 9.17812 7.48358 9.65611 7.12408C10.1351 6.76459 10.6699 7.08923 11.7374 7.73851C12.0142 7.9068 12.2821 8.07808 12.5181 8.24439C12.787 8.43359 13.0808 8.66064 13.3765 8.90163Z" stroke="#96B87D" stroke-width="2"/>
<path d="M6.51721 2.33243C8.03032 1.45682 9.74815 0.997131 11.4963 1.00001C16.9963 1.00001 21.4546 5.45832 21.4546 10.9583C21.4546 16.4582 16.9963 20.9165 11.4963 20.9165C5.9964 20.9165 1.53809 16.4582 1.53809 10.9583C1.53809 9.14487 2.02305 7.443 2.8705 5.97914" stroke="#96B87D" stroke-width="2" stroke-linecap="round"/>
</svg>
