<svg width="22" height="24" viewBox="0 0 22 24" fill="none" xmlns="http://www.w3.org/2000/svg">
<path d="M1.53809 4.125V19.7425" stroke="#96B87D" stroke-width="2" stroke-linecap="round"/>
<path d="M20.2881 8.8125V19.75" stroke="#96B87D" stroke-width="2" stroke-linecap="round" stroke-linejoin="round"/>
<path d="M4.66309 1H12.4756" stroke="#96B87D" stroke-width="2" stroke-linecap="round" stroke-linejoin="round"/>
<path d="M4.66309 22.875H17.1631" stroke="#96B87D" stroke-width="2" stroke-linecap="round"/>
<path d="M20.2881 19.75C20.2966 21.3107 18.7256 22.875 17.1631 22.875" stroke="#96B87D" stroke-width="2" stroke-linecap="round" stroke-linejoin="round"/>
<path d="M1.53809 19.75C1.53809 21.3125 3.10059 22.875 4.66309 22.875" stroke="#96B87D" stroke-width="2" stroke-linecap="round" stroke-linejoin="round"/>
<path d="M1.53809 4.12256C1.53809 2.56233 3.10059 1.03462 4.66309 0.999826" stroke="#96B87D" stroke-width="2" stroke-linecap="round" stroke-linejoin="round"/>
<path d="M20.2795 8.81951L12.4756 1" stroke="#96B87D" stroke-width="2" stroke-linecap="round" stroke-linejoin="round"/>
<path d="M12.4756 5.6875C12.4804 7.2415 14.0444 8.8125 15.6006 8.8125" stroke="#96B87D" stroke-width="2" stroke-linecap="round" stroke-linejoin="round"/>
<path d="M12.4756 5.6875V1" stroke="#96B87D" stroke-width="2" stroke-linecap="round" stroke-linejoin="round"/>
<path d="M15.6006 8.8125H20.2881" stroke="#96B87D" stroke-width="2" stroke-linecap="round" stroke-linejoin="round"/>
<path d="M4.66309 19.75H9.35059" stroke="#96B87D" stroke-width="2" stroke-linecap="round" stroke-linejoin="round"/>
<path d="M4.66309 16.625H12.4756" stroke="#96B87D" stroke-width="2" stroke-linecap="round" stroke-linejoin="round"/>
<path d="M4.66309 13.5H9.35059" stroke="#96B87D" stroke-width="2" stroke-linecap="round" stroke-linejoin="round"/>
</svg>
