<svg width="42" height="42" viewBox="0 0 42 42" fill="none" xmlns="http://www.w3.org/2000/svg">
<path d="M19.1661 35.3861C19.7517 35.7959 20.4761 35.9563 21.1799 35.832C21.8838 35.7077 22.5094 35.309 22.9192 34.7234C23.0611 34.5206 23.1166 34.2697 23.0735 34.026C23.0304 33.7822 22.8922 33.5656 22.6894 33.4237L20.5311 31.1499L25.4567 34.5974C25.6449 34.7296 25.8573 34.8234 26.0817 34.8733C26.3062 34.9232 26.5383 34.9283 26.7647 34.8883C26.9912 34.8483 27.2075 34.764 27.4013 34.6402C27.595 34.5164 27.7625 34.3556 27.8939 34.1669C28.0257 33.9786 28.1191 33.7662 28.1687 33.5418C28.2184 33.3174 28.2234 33.0855 28.1834 32.8592C28.1434 32.6328 28.0593 32.4166 27.9357 32.2228C27.8122 32.029 27.6517 31.8615 27.4634 31.7297L23.2681 27.8739L29.5389 32.2641C29.727 32.3963 29.9394 32.49 30.1639 32.54C30.3884 32.5899 30.6205 32.595 30.8469 32.555C31.0733 32.515 31.2897 32.4307 31.4834 32.3069C31.6772 32.1831 31.8446 32.0222 31.9761 31.8336C32.1078 31.6453 32.2012 31.4329 32.2509 31.2085C32.3006 30.9841 32.3056 30.7521 32.2656 30.5258C32.2256 30.2995 32.1415 30.0833 32.0179 29.8895C31.8944 29.6957 31.7339 29.5282 31.5456 29.3964L25.9852 24.6446L32.8266 29.4337C33.0147 29.566 33.2271 29.6597 33.4516 29.7096C33.676 29.7596 33.9081 29.7647 34.1346 29.7247C34.361 29.6847 34.5773 29.6004 34.7711 29.4766C34.9649 29.3528 35.1323 29.1919 35.2637 29.0032C35.3955 28.8149 35.4889 28.6025 35.5386 28.3782C35.5882 28.1538 35.5932 27.9218 35.5533 27.6955C35.5133 27.4692 35.4291 27.253 35.3056 27.0592C35.182 26.8654 35.0215 26.6978 34.8332 26.5661L5.52191 13.0596L1.47708 19.5007C1.02325 20.2007 1.14691 21.1492 1.79908 21.7069L10.8827 29.4897C11.2973 29.8444 11.7278 30.1785 12.1742 30.4919L19.1661 35.3861Z" fill="#D2A077"/>
<path d="M34.7691 25.3774L21.5834 15.8679L21.5146 15.7746L21.5764 15.6812L21.6383 15.6194L22.6346 16.1666C23.7523 16.8899 26.3061 17.9586 28.2416 17.9586C29.5658 17.9586 30.3591 17.4627 30.5959 16.4921C30.6676 16.0631 30.5665 15.6231 30.3146 15.2685C30.0627 14.9138 29.6806 14.6734 29.2519 14.5997C28.0813 14.4246 26.9648 13.9897 25.9841 13.3269L25.3366 12.8917C24.6086 12.4006 23.7838 11.8441 23.1748 11.4847C22.4164 11.0251 21.5916 10.8022 20.6513 10.8022C19.2559 10.8022 17.8384 11.2946 16.4688 11.7706L14.9918 12.2792C14.3543 12.4936 13.6856 12.6004 13.0131 12.5954C11.2118 12.5954 9.44893 11.9117 7.74443 11.2514L7.57293 11.1837C7.22211 11.0496 6.8356 11.0415 6.47942 11.1606C6.12323 11.2798 5.81945 11.5189 5.61993 11.8371L1.5751 18.2806C1.36989 18.6019 1.28726 18.9864 1.34232 19.3637C1.39738 19.741 1.58645 20.0858 1.87493 20.3351L10.9574 28.1191C11.3681 28.4702 11.7998 28.8051 12.2408 29.1131L19.4333 34.1484C19.6843 34.3243 19.9675 34.449 20.2667 34.5153C20.5659 34.5817 20.8753 34.5885 21.1771 34.5353C21.4789 34.4821 21.7673 34.37 22.0258 34.2053C22.2843 34.0406 22.5078 33.8267 22.6836 33.5756C22.825 33.3725 22.8803 33.1217 22.8375 32.878C22.7947 32.6343 22.6571 32.4174 22.4549 32.2747L20.3164 30.7779C20.2605 30.7386 20.2134 30.6881 20.178 30.6297C20.1426 30.5713 20.1196 30.5061 20.1106 30.4384C20.1017 30.3706 20.1068 30.3018 20.1258 30.2361C20.1447 30.1705 20.1771 30.1094 20.2208 30.0569C20.2996 29.9615 20.4116 29.8994 20.5343 29.8832C20.657 29.8669 20.7813 29.8977 20.8823 29.9694L25.5244 33.2186C25.8793 33.467 26.3184 33.5643 26.7451 33.4891C27.1717 33.4138 27.551 33.1721 27.7994 32.8172C28.0479 32.4623 28.1452 32.0233 28.0699 31.5966C27.9947 31.17 27.753 30.7907 27.3981 30.5422L23.0534 27.5019C22.9975 27.4626 22.9504 27.4121 22.915 27.3537C22.8796 27.2953 22.8566 27.2301 22.8476 27.1624C22.8387 27.0946 22.8438 27.0258 22.8628 26.9601C22.8817 26.8945 22.9141 26.8334 22.9578 26.7809C23.0371 26.6862 23.149 26.6246 23.2715 26.6084C23.394 26.5922 23.5181 26.6225 23.6193 26.6934L29.6066 30.8852C29.7823 31.0083 29.9806 31.0955 30.19 31.1419C30.3994 31.1883 30.616 31.193 30.8272 31.1557C31.0385 31.1185 31.2403 31.04 31.4212 30.9247C31.6021 30.8094 31.7586 30.6596 31.8816 30.4839C32.0046 30.3082 32.0918 30.1099 32.1382 29.9005C32.1847 29.6911 32.1894 29.4745 32.1521 29.2633C32.1148 29.052 32.0363 28.8502 31.921 28.6693C31.8058 28.4884 31.656 28.3319 31.4803 28.2089L25.8009 24.2341C25.7445 24.1951 25.697 24.1448 25.6612 24.0863C25.6255 24.0278 25.6025 23.9625 25.5935 23.8946C25.5846 23.8266 25.5901 23.7576 25.6095 23.6919C25.629 23.6261 25.662 23.5652 25.7064 23.5131C25.7773 23.4286 25.8773 23.3738 25.9866 23.3595C26.0959 23.3453 26.2066 23.3726 26.2968 23.4361L32.8954 28.0549C33.0712 28.1779 33.2696 28.2651 33.4791 28.3115C33.6886 28.3579 33.9052 28.3626 34.1165 28.3252C34.3278 28.2879 34.5297 28.2093 34.7106 28.094C34.8915 27.9787 35.048 27.8288 35.171 27.653C35.294 27.4772 35.3812 27.2789 35.4276 27.0694C35.474 26.8599 35.4787 26.6433 35.4413 26.432C35.404 26.2207 35.3255 26.0188 35.2101 25.8378C35.0948 25.6569 34.9449 25.5004 34.7691 25.3774Z" fill="#F3D2A2"/>
<path d="M19.2921 32.5838C19.2105 32.8953 19.0506 33.1648 18.8383 33.3783L17.667 34.5403C17.452 34.7567 17.1842 34.9132 16.8902 34.9943C16.5961 35.0753 16.2859 35.0781 15.9905 35.0023C15.6922 34.9246 15.4197 34.7696 15.2006 34.5528C14.9815 34.3361 14.8236 34.0653 14.7427 33.7679C14.6618 33.4705 14.661 33.157 14.7401 32.8591C14.8193 32.5613 14.9758 32.2896 15.1936 32.0716L16.365 30.9096C16.5799 30.6932 16.8477 30.5367 17.1418 30.4557C17.4359 30.3746 17.746 30.3718 18.0415 30.4476C18.2639 30.5057 18.4727 30.6071 18.6559 30.7459C18.8391 30.8847 18.9932 31.0583 19.1093 31.2566C19.2255 31.455 19.3014 31.6743 19.3328 31.902C19.3641 32.1297 19.3503 32.3614 19.2921 32.5838ZM6.99081 26.8426L8.74431 25.0961C8.94481 24.8959 9.09368 24.6499 9.17812 24.3795C9.26257 24.109 9.28007 23.822 9.22912 23.5433C9.17817 23.2645 9.06028 23.0023 8.88561 22.7792C8.71093 22.556 8.48468 22.3787 8.22631 22.2623C7.90264 22.1167 7.54226 22.0734 7.1933 22.138C6.84433 22.2026 6.52339 22.3721 6.27331 22.624L4.51981 24.3705C4.31935 24.5708 4.17054 24.8168 4.08617 25.0874C4.00181 25.3579 3.98441 25.6449 4.03548 25.9237C4.08655 26.2024 4.20456 26.4646 4.37936 26.6877C4.55416 26.9108 4.78052 27.088 5.03897 27.2043C5.36266 27.3488 5.72259 27.3916 6.07113 27.327C6.41967 27.2624 6.74038 27.0935 6.99081 26.8426ZM13.0621 26.9033C13.2339 26.7429 13.3716 26.5496 13.4671 26.3348C13.5625 26.1201 13.6137 25.8883 13.6177 25.6533C13.6216 25.4184 13.5781 25.185 13.4899 24.9672C13.4017 24.7494 13.2705 24.5515 13.1042 24.3855C12.9378 24.2195 12.7398 24.0887 12.5218 24.0009C12.3038 23.9131 12.0704 23.8701 11.8354 23.8744C11.6004 23.8788 11.3687 23.9304 11.1542 24.0263C10.9396 24.1221 10.7465 24.2602 10.5865 24.4323L7.08414 27.93C6.91236 28.0903 6.77464 28.2837 6.6792 28.4984C6.58376 28.7132 6.53255 28.945 6.52862 29.1799C6.5247 29.4149 6.56815 29.6483 6.65637 29.8661C6.74459 30.0839 6.87578 30.2817 7.04211 30.4477C7.20844 30.6138 7.40651 30.7446 7.6245 30.8324C7.84248 30.9202 8.07592 30.9632 8.31089 30.9588C8.54586 30.9545 8.77754 30.9028 8.99211 30.807C9.20669 30.7111 9.39976 30.573 9.55981 30.401L13.0621 26.9033ZM15.6871 30.4033C15.9233 30.1666 16.0868 29.8672 16.1581 29.5406C16.2295 29.2139 16.2057 28.8737 16.0897 28.5601C15.9738 28.2465 15.7704 27.9727 15.5036 27.7711C15.2369 27.5695 14.918 27.4485 14.5846 27.4225C14.3329 27.4035 14.0801 27.4397 13.8438 27.5283C13.6075 27.617 13.3933 27.756 13.2161 27.9358L10.877 30.2633C10.6404 30.4999 10.4767 30.7994 10.4051 31.1262C10.3336 31.4531 10.3572 31.7936 10.4732 32.1074C10.5892 32.4212 10.7928 32.6952 11.0598 32.8969C11.3267 33.0985 11.6459 33.2195 11.9795 33.2453C12.5103 33.2873 12.9991 33.0808 13.348 32.732L15.6871 30.4033ZM35.0013 25.5768L35.7328 24.9445L27.6676 12.2861L13.3526 14.602C13.125 14.6404 12.9071 14.7233 12.7115 14.846C12.5158 14.9686 12.3463 15.1286 12.2125 15.3168C12.0787 15.505 11.9833 15.7177 11.9317 15.9427C11.8801 16.1678 11.8733 16.4008 11.9118 16.6285C12.6795 19.7726 18.9153 17.437 21.6593 15.9273L35.0013 25.5768Z" fill="#90603E"/>
<path d="M19.2921 31.4172C19.2105 31.7287 19.0506 31.9982 18.8383 32.2117L17.667 33.3737C17.452 33.5901 17.1842 33.7466 16.8902 33.8277C16.5961 33.9087 16.2859 33.9115 15.9905 33.8357C15.6922 33.7581 15.4197 33.603 15.2006 33.3862C14.9815 33.1695 14.8236 32.8987 14.7427 32.6013C14.6618 32.3039 14.661 31.9904 14.7401 31.6925C14.8193 31.3947 14.9758 31.123 15.1936 30.905L16.365 29.743C16.5799 29.5266 16.8477 29.3701 17.1418 29.2891C17.4359 29.208 17.746 29.2053 18.0415 29.281C18.2639 29.3391 18.4727 29.4405 18.6559 29.5793C18.8391 29.7181 18.9932 29.8917 19.1093 30.09C19.2255 30.2884 19.3014 30.5077 19.3328 30.7354C19.3641 30.9632 19.3503 31.1948 19.2921 31.4172ZM6.99081 25.676L8.74431 23.9295C8.94481 23.7293 9.09368 23.4833 9.17812 23.2129C9.26257 22.9424 9.28007 22.6554 9.22912 22.3767C9.17817 22.0979 9.06028 21.8357 8.88561 21.6126C8.71093 21.3894 8.48468 21.2121 8.22631 21.0957C7.90248 20.951 7.54231 20.908 7.19353 20.9726C6.84475 21.0372 6.52383 21.2063 6.27331 21.4574L4.51981 23.2039C4.31935 23.4042 4.17054 23.6502 4.08617 23.9208C4.00181 24.1913 3.98441 24.4783 4.03548 24.7571C4.08655 25.0358 4.20456 25.298 4.37936 25.5211C4.55416 25.7442 4.78052 25.9215 5.03897 26.0377C5.36266 26.1822 5.72259 26.225 6.07113 26.1604C6.41967 26.0958 6.74038 25.9269 6.99081 25.676ZM13.0621 25.7367C13.2339 25.5763 13.3716 25.383 13.4671 25.1682C13.5625 24.9535 13.6137 24.7217 13.6177 24.4867C13.6216 24.2518 13.5781 24.0184 13.4899 23.8006C13.4017 23.5828 13.2705 23.3849 13.1042 23.2189C12.9378 23.0529 12.7398 22.9221 12.5218 22.8343C12.3038 22.7465 12.0704 22.7035 11.8354 22.7078C11.6004 22.7122 11.3687 22.7638 11.1542 22.8597C10.9396 22.9555 10.7465 23.0936 10.5865 23.2657L7.08414 26.7634C6.91236 26.9237 6.77464 27.1171 6.6792 27.3318C6.58376 27.5466 6.53255 27.7784 6.52862 28.0133C6.5247 28.2483 6.56815 28.4817 6.65637 28.6995C6.74459 28.9173 6.87578 29.1151 7.04211 29.2812C7.20844 29.4472 7.40651 29.578 7.6245 29.6658C7.84248 29.7536 8.07592 29.7966 8.31089 29.7922C8.54586 29.7879 8.77754 29.7362 8.99211 29.6404C9.20669 29.5445 9.39976 29.4065 9.55981 29.2344L13.0621 25.7367ZM15.6871 29.2367C15.9233 29 16.0868 28.7007 16.1581 28.374C16.2295 28.0473 16.2057 27.7071 16.0897 27.3935C15.9738 27.0799 15.7704 26.8061 15.5036 26.6045C15.2369 26.4029 14.918 26.2819 14.5846 26.2559C14.3329 26.2369 14.0801 26.2731 13.8438 26.3617C13.6075 26.4504 13.3933 26.5894 13.2161 26.7692L10.877 29.0967C10.6404 29.3333 10.4767 29.6328 10.4051 29.9596C10.3336 30.2865 10.3572 30.627 10.4732 30.9408C10.5892 31.2546 10.7928 31.5286 11.0598 31.7303C11.3267 31.9319 11.6459 32.0529 11.9795 32.0787C12.5103 32.1207 12.9991 31.9142 13.348 31.5654L15.6871 29.2367ZM40.837 20.538C41.1459 20.2711 41.3478 19.9014 41.4054 19.4972C41.4631 19.093 41.3727 18.6816 41.1508 18.3389L41.1473 18.333L37.1025 10.7252C36.8886 10.3843 36.563 10.1281 36.1813 10.0005C35.7996 9.8728 35.3854 9.88155 35.0095 10.0252C32.6855 10.9247 30.1398 11.9584 27.6688 11.1184L26.3878 10.6785C24.1151 9.89104 21.6441 8.9682 19.3878 10.3355C18.577 10.8127 17.3601 11.6574 16.575 12.1789C15.6045 12.8258 14.505 13.2541 13.3526 13.4342C13.1245 13.4716 12.906 13.5539 12.7098 13.6763C12.5137 13.7986 12.3437 13.9586 12.2097 14.1471C12.0758 14.3355 11.9804 14.5486 11.9293 14.7741C11.8782 14.9995 11.8722 15.2329 11.9118 15.4607C12.627 18.3914 18.0951 16.52 21.0561 15.0302C21.241 14.9377 21.4478 14.8975 21.6538 14.9142C21.8599 14.9309 22.0575 15.0037 22.2251 15.1247L35.7398 24.9434L40.837 20.538Z" fill="#AF7E57"/>
</svg>
