<svg width="15" height="15" viewBox="0 0 15 15" fill="none" xmlns="http://www.w3.org/2000/svg">
<path d="M9.01077 6.15562C8.74843 5.89319 8.43696 5.68502 8.09415 5.54299C7.75134 5.40096 7.38391 5.32786 7.01285 5.32786C6.64178 5.32786 6.27435 5.40096 5.93155 5.54299C5.58874 5.68502 5.27727 5.89319 5.01493 6.15562L2.16077 9.01062C1.631 9.5405 1.33342 10.2591 1.3335 11.0084C1.33357 11.7577 1.6313 12.4763 2.16118 13.006C2.69106 13.5358 3.40969 13.8334 4.15898 13.8333C4.90826 13.8332 5.62683 13.5355 6.1566 13.0056L6.4241 12.7523M6.1566 9.01062C6.41894 9.27305 6.73041 9.48122 7.07321 9.62325C7.41602 9.76528 7.78345 9.83839 8.15452 9.83839C8.52558 9.83839 8.89301 9.76528 9.23582 9.62325C9.57863 9.48122 9.89009 9.27305 10.1524 9.01062L13.0058 6.15562C13.5356 5.62585 13.8334 4.90729 13.8335 4.158C13.8335 3.40871 13.536 2.69009 13.0062 2.16021C12.4764 1.63033 11.7578 1.3326 11.0086 1.33252C10.2593 1.33244 9.54065 1.63002 9.01077 2.15979L8.1541 2.96062" stroke="#43B549" stroke-width="1.5" stroke-linecap="round" stroke-linejoin="round"/>
</svg>
