<svg width="23" height="23" viewBox="0 0 23 23" fill="none" xmlns="http://www.w3.org/2000/svg">
<path d="M18.3298 8.37516V7.14391C18.3298 5.38037 18.3298 4.49808 18.0673 3.79391C17.8585 3.23427 17.5319 2.72605 17.1096 2.30369C16.6872 1.88134 16.179 1.55472 15.6193 1.346C14.9152 1.0835 14.0329 1.0835 12.2693 1.0835C9.18288 1.0835 7.63913 1.0835 6.40684 1.54287C5.42712 1.90801 4.53739 2.47958 3.79799 3.2188C3.05858 3.95803 2.4868 4.84762 2.12142 5.82725C1.66309 7.05954 1.66309 8.60329 1.66309 11.6897V14.3408C1.66309 17.5387 1.66309 19.1366 2.49434 20.247C2.73244 20.5651 3.01481 20.8475 3.33288 21.0856C4.44329 21.9168 6.04121 21.9168 9.23913 21.9168H13.6423" stroke="#96B87D" stroke-width="2" stroke-linecap="round" stroke-linejoin="round"/>
<path d="M9.99642 13.9304H10.8714C11.561 13.9304 11.9058 13.9304 12.1818 14.1127C12.4589 14.2939 12.6131 14.621 12.9214 15.2741L14.5798 18.7918L16.8714 11.5002L18.5298 15.0179C18.8381 15.671 18.9923 15.9981 19.2693 16.1793C19.5464 16.3606 19.8902 16.3616 20.5798 16.3616H21.4548M1.66309 11.5002C1.66309 10.5794 2.02887 9.69628 2.67997 9.04518C3.33108 8.39407 4.21416 8.02829 5.13496 8.02829H6.29225C6.83079 8.02829 7.09954 8.02829 7.32038 7.96891C7.61487 7.88966 7.88334 7.73438 8.0989 7.51865C8.31445 7.30291 8.4695 7.0343 8.5485 6.73975C8.60788 6.51891 8.60788 6.25016 8.60788 5.71162V4.55537C8.60788 3.63457 8.97366 2.75149 9.62477 2.10038C10.2759 1.44928 11.159 1.0835 12.0798 1.0835" stroke="#96B87D" stroke-width="2" stroke-linecap="round" stroke-linejoin="round"/>
</svg>
