<svg width="27" height="28" viewBox="0 0 27 28" fill="none" xmlns="http://www.w3.org/2000/svg">
<path d="M9.75 19C9.75 19.3315 9.6183 19.6495 9.38388 19.8839C9.14946 20.1183 8.83152 20.25 8.5 20.25C8.16848 20.25 7.85054 20.1183 7.61612 19.8839C7.3817 19.6495 7.25 19.3315 7.25 19C7.25 18.6685 7.3817 18.3505 7.61612 18.1161C7.85054 17.8817 8.16848 17.75 8.5 17.75C8.83152 17.75 9.14946 17.8817 9.38388 18.1161C9.6183 18.3505 9.75 18.6685 9.75 19ZM14.75 19C14.75 19.3315 14.6183 19.6495 14.3839 19.8839C14.1495 20.1183 13.8315 20.25 13.5 20.25C13.1685 20.25 12.8505 20.1183 12.6161 19.8839C12.3817 19.6495 12.25 19.3315 12.25 19C12.25 18.6685 12.3817 18.3505 12.6161 18.1161C12.8505 17.8817 13.1685 17.75 13.5 17.75C13.8315 17.75 14.1495 17.8817 14.3839 18.1161C14.6183 18.3505 14.75 18.6685 14.75 19ZM19.75 19C19.75 19.3315 19.6183 19.6495 19.3839 19.8839C19.1495 20.1183 18.8315 20.25 18.5 20.25C18.1685 20.25 17.8505 20.1183 17.6161 19.8839C17.3817 19.6495 17.25 19.3315 17.25 19C17.25 18.6685 17.3817 18.3505 17.6161 18.1161C17.8505 17.8817 18.1685 17.75 18.5 17.75C18.8315 17.75 19.1495 17.8817 19.3839 18.1161C19.6183 18.3505 19.75 18.6685 19.75 19Z" fill="#262626"/>
<path d="M6 11.5005V9.00047C6 8.57463 6.03458 8.15797 6.10375 7.75047M21 11.5005V9.00047C21.0001 7.47702 20.5362 5.98966 19.6702 4.73633C18.8041 3.48301 17.5769 2.52314 16.1519 1.98448C14.7268 1.44581 13.1715 1.35389 11.693 1.72095C10.2144 2.088 8.88267 2.89663 7.875 4.03922M12.25 26.5005H8.5C4.965 26.5005 3.19625 26.5005 2.09875 25.4017C1 24.3042 1 22.5355 1 19.0005C1 15.4655 1 13.6967 2.09875 12.5992C3.19625 11.5005 4.965 11.5005 8.5 11.5005H18.5C22.035 11.5005 23.8038 11.5005 24.9013 12.5992C26 13.6967 26 15.4655 26 19.0005C26 22.5355 26 24.3042 24.9013 25.4017C23.8038 26.5005 22.035 26.5005 18.5 26.5005H17.25" stroke="#262626" stroke-width="1.5" stroke-linecap="round"/>
</svg>
