<svg
            xmlns="http://www.w3.org/2000/svg"
            width="88"
            height="30"
            viewBox="0 0 88 30"
            fill="none"
          >
            <path
              d="M44.6409 3.2373C43.6007 3.2373 42.5978 3.40924 41.645 3.72168C42.1716 3.59042 42.7113 3.49428 43.2621 3.43143C43.7105 3.30756 44.1701 3.2373 44.6409 3.2373Z"
              fill="#285A8B"
            />
            <path
              d="M34.6433 20.9354L32.8476 16.6426L28.3016 5.84021L24.1557 15.4982L21.8036 20.9354H19.4497L28.3519 0.859619L37.0233 20.9354H34.6433Z"
              fill="#6D6E71"
            />
            <path
              d="M7.36906 9.96855V1.76001H5.22168V20.9207H7.36906V12.6622L7.90684 12.1279L15.8097 20.9207H18.7777L9.41597 10.6803L18.4707 1.76001H15.5809L7.36906 9.96855Z"
              fill="#6D6E71"
            />
            <path
              d="M40.019 3.74189H40.6591C43.2419 3.74189 45.5698 4.04694 45.5698 7.19909C45.5698 10.1719 43.1154 10.6304 40.6833 10.6304H40.019V3.74189ZM40.019 12.5088H40.5567L40.6442 12.0558H43.2791L42.8846 12.3313C45.8508 12.078 47.719 9.99443 47.719 7.04564C47.719 2.72507 44.3175 1.76001 40.6591 1.76001H37.8716V20.9207H40.0208V12.5088H40.019Z"
              fill="#6D6E71"
            />
            <path
              d="M56.3383 3.74189H61.0462V1.76001H49.5352V3.74189H54.1909V20.9207H56.3383V3.74189Z"
              fill="#6D6E71"
            />
            <path
              d="M25.4639 13.3812C28.0485 11.6452 31.3422 10.4935 34.9838 10.242C43.6831 9.63748 51.1357 14.3888 51.8763 20.9187C49.0777 15.2356 41.8502 11.3328 32.7787 11.9614C30.449 12.1241 27.5052 12.7175 25.4639 13.3812Z"
              fill="#5EAC41"
            />
            <path
              d="M51.5078 22.3743H52.3398L54.0039 25.1569H54.0742L55.7383 22.3743H56.5703L54.4023 25.8788V28.3354H53.6758V25.8788L51.5078 22.3743Z"
              fill="#6D6E71"
            />
            <path
              d="M50.1792 24.2371C50.1147 24.0411 50.0298 23.8655 49.9243 23.7102C49.8208 23.5531 49.6968 23.4192 49.5522 23.3086C49.4097 23.198 49.2475 23.1135 49.0659 23.0553C48.8843 22.9971 48.685 22.968 48.4683 22.968C48.1128 22.968 47.7895 23.0592 47.4985 23.2416C47.2075 23.424 46.9761 23.6928 46.8042 24.0479C46.6323 24.403 46.5464 24.8386 46.5464 25.3548C46.5464 25.871 46.6333 26.3066 46.8071 26.6617C46.981 27.0168 47.2163 27.2856 47.5132 27.468C47.8101 27.6504 48.144 27.7416 48.5151 27.7416C48.8589 27.7416 49.1616 27.6688 49.4233 27.5233C49.687 27.3758 49.8921 27.1682 50.0386 26.9004C50.187 26.6307 50.2612 26.3134 50.2612 25.9486L50.4839 25.9951H48.6792V25.3548H50.9643V25.9951C50.9643 26.4861 50.8589 26.913 50.6479 27.2759C50.439 27.6387 50.1499 27.9201 49.7807 28.12C49.4136 28.3179 48.9917 28.4169 48.5151 28.4169C47.9839 28.4169 47.5171 28.2927 47.1147 28.0443C46.7144 27.7959 46.4019 27.4427 46.1772 26.9848C45.9546 26.5268 45.8433 25.9835 45.8433 25.3548C45.8433 24.8833 45.9067 24.4593 46.0337 24.0828C46.1626 23.7044 46.3442 23.3823 46.5786 23.1165C46.813 22.8506 47.0903 22.6469 47.4106 22.5052C47.731 22.3636 48.0835 22.2927 48.4683 22.2927C48.7847 22.2927 49.0796 22.3403 49.353 22.4353C49.6284 22.5285 49.8735 22.6614 50.0884 22.8341C50.3052 23.0049 50.4858 23.2096 50.6304 23.4483C50.7749 23.685 50.8745 23.9479 50.9292 24.2371H50.1792Z"
              fill="#6D6E71"
            />
            <path
              d="M44.8559 25.3548C44.8559 25.9835 44.7417 26.5268 44.5132 26.9848C44.2847 27.4427 43.9712 27.7959 43.5727 28.0443C43.1743 28.2927 42.7192 28.4169 42.2075 28.4169C41.6958 28.4169 41.2407 28.2927 40.8423 28.0443C40.4438 27.7959 40.1304 27.4427 39.9019 26.9848C39.6733 26.5268 39.5591 25.9835 39.5591 25.3548C39.5591 24.7261 39.6733 24.1827 39.9019 23.7248C40.1304 23.2668 40.4438 22.9137 40.8423 22.6653C41.2407 22.4169 41.6958 22.2927 42.2075 22.2927C42.7192 22.2927 43.1743 22.4169 43.5727 22.6653C43.9712 22.9137 44.2847 23.2668 44.5132 23.7248C44.7417 24.1827 44.8559 24.7261 44.8559 25.3548ZM44.1528 25.3548C44.1528 24.8386 44.0659 24.403 43.8921 24.0479C43.7202 23.6928 43.4868 23.424 43.1919 23.2416C42.8989 23.0592 42.5708 22.968 42.2075 22.968C41.8442 22.968 41.5151 23.0592 41.2202 23.2416C40.9272 23.424 40.6938 23.6928 40.52 24.0479C40.3481 24.403 40.2622 24.8386 40.2622 25.3548C40.2622 25.871 40.3481 26.3066 40.52 26.6617C40.6938 27.0168 40.9272 27.2856 41.2202 27.468C41.5151 27.6504 41.8442 27.7416 42.2075 27.7416C42.5708 27.7416 42.8989 27.6504 43.1919 27.468C43.4868 27.2856 43.7202 27.0168 43.8921 26.6617C44.0659 26.3066 44.1528 25.871 44.1528 25.3548Z"
              fill="#6D6E71"
            />
            <path
              d="M35.3867 28.3354V22.3743H36.1133V27.695H38.9023V28.3354H35.3867Z"
              fill="#6D6E71"
            />
            <path
              d="M34.165 25.3548C34.165 25.9835 34.0508 26.5268 33.8223 26.9848C33.5937 27.4427 33.2803 27.7959 32.8818 28.0443C32.4834 28.2927 32.0283 28.4169 31.5166 28.4169C31.0049 28.4169 30.5498 28.2927 30.1514 28.0443C29.7529 27.7959 29.4395 27.4427 29.2109 26.9848C28.9824 26.5268 28.8682 25.9835 28.8682 25.3548C28.8682 24.7261 28.9824 24.1827 29.2109 23.7248C29.4395 23.2668 29.7529 22.9137 30.1514 22.6653C30.5498 22.4169 31.0049 22.2927 31.5166 22.2927C32.0283 22.2927 32.4834 22.4169 32.8818 22.6653C33.2803 22.9137 33.5937 23.2668 33.8223 23.7248C34.0508 24.1827 34.165 24.7261 34.165 25.3548ZM33.4619 25.3548C33.4619 24.8386 33.375 24.403 33.2012 24.0479C33.0293 23.6928 32.7959 23.424 32.501 23.2416C32.208 23.0592 31.8799 22.968 31.5166 22.968C31.1533 22.968 30.8242 23.0592 30.5293 23.2416C30.2363 23.424 30.0029 23.6928 29.8291 24.0479C29.6572 24.403 29.5713 24.8386 29.5713 25.3548C29.5713 25.871 29.6572 26.3066 29.8291 26.6617C30.0029 27.0168 30.2363 27.2856 30.5293 27.468C30.8242 27.6504 31.1533 27.7416 31.5166 27.7416C31.8799 27.7416 32.208 27.6504 32.501 27.468C32.7959 27.2856 33.0293 27.0168 33.2012 26.6617C33.375 26.3066 33.4619 25.871 33.4619 25.3548Z"
              fill="#6D6E71"
            />
            <path
              d="M25.0244 28.3354H23.1729V22.3743H25.1064C25.6885 22.3743 26.1865 22.4936 26.6006 22.7323C27.0146 22.969 27.332 23.3096 27.5527 23.7539C27.7734 24.1964 27.8838 24.7261 27.8838 25.3432C27.8838 25.9641 27.7724 26.4987 27.5498 26.947C27.3271 27.3933 27.0029 27.7368 26.5771 27.9774C26.1514 28.2161 25.6338 28.3354 25.0244 28.3354ZM23.8994 27.695H24.9775C25.4736 27.695 25.8848 27.6 26.2109 27.4098C26.5371 27.2196 26.7803 26.9489 26.9404 26.5977C27.1006 26.2465 27.1807 25.8283 27.1807 25.3432C27.1807 24.862 27.1016 24.4477 26.9433 24.1003C26.7851 23.751 26.5488 23.4832 26.2344 23.297C25.9199 23.1087 25.5283 23.0146 25.0596 23.0146H23.8994V27.695Z"
              fill="#6D6E71"
            />
            <path
              d="M21.9512 25.3548C21.9512 25.9835 21.8369 26.5268 21.6084 26.9848C21.3799 27.4427 21.0664 27.7959 20.668 28.0443C20.2695 28.2927 19.8144 28.4169 19.3027 28.4169C18.791 28.4169 18.3359 28.2927 17.9375 28.0443C17.5391 27.7959 17.2256 27.4427 16.9971 26.9848C16.7686 26.5268 16.6543 25.9835 16.6543 25.3548C16.6543 24.7261 16.7686 24.1827 16.9971 23.7248C17.2256 23.2668 17.5391 22.9137 17.9375 22.6653C18.3359 22.4169 18.791 22.2927 19.3027 22.2927C19.8144 22.2927 20.2695 22.4169 20.668 22.6653C21.0664 22.9137 21.3799 23.2668 21.6084 23.7248C21.8369 24.1827 21.9512 24.7261 21.9512 25.3548ZM21.248 25.3548C21.248 24.8386 21.1611 24.403 20.9873 24.0479C20.8154 23.6928 20.582 23.424 20.2871 23.2416C19.9941 23.0592 19.666 22.968 19.3027 22.968C18.9394 22.968 18.6103 23.0592 18.3154 23.2416C18.0225 23.424 17.7891 23.6928 17.6152 24.0479C17.4434 24.403 17.3574 24.8386 17.3574 25.3548C17.3574 25.871 17.4434 26.3066 17.6152 26.6617C17.7891 27.0168 18.0225 27.2856 18.3154 27.468C18.6103 27.6504 18.9394 27.7416 19.3027 27.7416C19.666 27.7416 19.9941 27.6504 20.2871 27.468C20.582 27.2856 20.8154 27.0168 20.9873 26.6617C21.1611 26.3066 21.248 25.871 21.248 25.3548Z"
              fill="#6D6E71"
            />
            <path
              d="M11.6519 28.3354V22.3743H13.6792C14.1499 22.3743 14.5347 22.4587 14.8335 22.6275C15.1343 22.7944 15.3569 23.0204 15.5015 23.3057C15.646 23.5909 15.7183 23.9092 15.7183 24.2604C15.7183 24.6116 15.646 24.9308 15.5015 25.218C15.3589 25.5052 15.1382 25.7342 14.8393 25.905C14.5405 26.0738 14.1577 26.1582 13.6909 26.1582H12.2378V25.5178H13.6675C13.9897 25.5178 14.2485 25.4625 14.4438 25.3519C14.6392 25.2413 14.7808 25.0919 14.8686 24.9037C14.9585 24.7135 15.0034 24.4991 15.0034 24.2604C15.0034 24.0217 14.9585 23.8083 14.8686 23.6201C14.7808 23.4318 14.6382 23.2843 14.4409 23.1776C14.2436 23.069 13.9819 23.0146 13.6558 23.0146H12.3784V28.3354H11.6519Z"
              fill="#6D6E71"
            />
            <path
              d="M69.4403 24.4666C68.8802 24.2374 68.134 22.6567 68.054 21.8506C67.974 21.0464 67.3618 17.2749 66.7012 15.1728C66.0183 13.0005 68.2364 10.4936 70.4191 10.6415C71.1541 10.6914 72.7563 10.7986 72.5014 12.6862C72.4716 12.9062 72.4139 13.0893 72.3432 13.2557C72.7302 12.9099 73.028 12.4625 73.1266 11.736C73.4318 9.47123 71.5114 9.34367 70.6294 9.2845C68.0112 9.10517 65.354 12.1131 66.1709 14.7162C66.9617 17.2361 67.6967 21.7582 67.7935 22.7214C67.8884 23.6864 68.5955 24.9029 69.2654 25.1784C72.4697 26.491 73.0578 23.3333 72.5274 21.8062C72.373 21.3625 72.0566 20.9761 71.6789 20.6045C71.9413 20.904 72.1534 21.2017 72.2595 21.4975C72.9256 23.3647 72.1143 25.5611 69.4403 24.4666Z"
              fill="#5EAC41"
            />
            <path
              d="M69.498 18.3878C68.6551 17.0308 70.2219 14.7032 71.1095 14.1079C71.5393 13.8195 71.9822 13.5829 72.3451 13.2557C72.4139 13.0893 72.4716 12.9062 72.5033 12.6862C72.7582 10.7968 71.156 10.6914 70.421 10.6415C68.2364 10.4936 66.0202 13.0005 66.7031 15.1728C67.3637 17.2749 67.9759 21.0464 68.0559 21.8506C68.1359 22.6567 68.8821 24.2355 69.4422 24.4648C72.1162 25.5592 72.9275 23.3647 72.2651 21.4975C72.159 21.2017 71.9469 20.904 71.6845 20.6045C70.9774 19.9131 70.047 19.2716 69.498 18.3878Z"
              fill="#5EAC41"
            />
            <path
              d="M70.5307 8.19363C70.1957 7.41899 70.754 6.2783 71.288 6.22654C71.8332 6.17477 72.1645 6.64436 72.2984 6.8884C72.2743 6.76638 72.2426 6.63512 72.2017 6.49461C72.2017 6.49461 71.8239 5.54619 71.0275 5.62199C70.3334 5.6867 69.5984 7.44303 70.5307 8.19363Z"
              fill="#5EAC41"
            />
            <path
              d="M69.6375 6.83479C69.7733 6.91614 69.8738 7.02337 69.9482 7.14169C69.9129 6.80891 69.764 6.48722 69.4384 6.2931C68.7833 5.90301 67.8827 7.30438 68.7071 8.05498C68.4893 7.36724 69.1388 6.53899 69.6375 6.83479Z"
              fill="#5EAC41"
            />
            <path
              d="M67.8568 9.07912C67.6391 8.61138 67.775 7.94397 68.2532 8.07154C68.3741 8.10297 68.469 8.16583 68.5453 8.24348C68.4821 7.96986 68.3165 7.72397 68.0113 7.64262C67.3507 7.46329 67.2911 8.68348 67.8568 9.07912Z"
              fill="#5EAC41"
            />
            <path
              d="M66.9171 10.2161C66.7031 9.8685 66.785 9.08277 67.0715 9.05504C67.2744 9.0347 67.4176 9.09571 67.5144 9.19924C67.4418 8.94781 67.2464 8.75739 66.8929 8.79251C66.5133 8.82764 66.463 10.0756 66.9171 10.2161Z"
              fill="#5EAC41"
            />
            <path
              d="M65.9905 10.8651C66.0928 10.0997 66.4631 10.0757 66.7013 10.6007L66.6901 10.5397C66.4091 9.6486 65.8528 9.5728 65.7132 10.6321C65.6871 10.8318 65.7504 11.2034 66.1058 11.2663C65.9979 11.1535 65.9756 10.976 65.9905 10.8651Z"
              fill="#5EAC41"
            />
            <path
              d="M70.3839 9.2788C68.1677 9.29544 66.0054 11.5121 66.024 13.7547C66.0259 14.0782 66.0743 14.4017 66.1748 14.7179C66.9656 17.2378 67.7006 21.7599 67.7974 22.7231C67.8923 23.6881 68.5994 24.9046 69.2693 25.1801C69.8071 25.4001 70.2723 25.4944 70.6705 25.4925C72.1592 25.4814 72.7137 24.1096 72.7044 22.8913C72.7007 22.4975 72.6393 22.1204 72.5332 21.8098C72.3787 21.3661 72.0624 20.9797 71.6828 20.6081C71.9452 20.9076 72.1573 21.2052 72.2634 21.501C72.2652 21.5066 72.2671 21.5103 72.269 21.5158C72.7993 23.0263 72.362 24.7475 70.7543 24.7604H70.7524H70.7505C70.3765 24.7623 69.9411 24.6735 69.4386 24.4664C68.8785 24.2372 68.1324 22.6565 68.0523 21.8523C67.9723 21.0481 67.3601 17.2766 66.6995 15.1745C66.6958 15.1597 66.6902 15.145 66.6865 15.1283C66.0706 13.0374 68.11 10.6543 70.2072 10.6358H70.2109C70.2742 10.6358 70.3356 10.6376 70.3988 10.6413C70.4063 10.6413 70.4119 10.6432 70.4193 10.6432C71.0985 10.6894 72.5164 10.7837 72.5295 12.2868C72.5295 12.4106 72.522 12.5437 72.5016 12.6879C72.4718 12.9079 72.4141 13.091 72.3434 13.2574C72.7304 12.9116 73.0282 12.4642 73.1268 11.7377C73.1491 11.5657 73.1603 11.4049 73.1584 11.257C73.1435 9.45443 71.4428 9.34166 70.6296 9.2862C70.5496 9.28065 70.4658 9.27695 70.3839 9.2788Z"
              fill="#6D6E71"
            />
            <path
              d="M72.5294 12.2848C72.5294 12.4087 72.5219 12.5418 72.5015 12.686C72.4717 12.906 72.414 13.0891 72.3433 13.2554C72.4121 13.0891 72.4717 12.906 72.5015 12.686C72.5219 12.5418 72.5312 12.4087 72.5294 12.2848ZM72.2688 21.5139C72.7992 23.0244 72.3619 24.7456 70.7541 24.7585C72.3619 24.7456 72.7973 23.0262 72.2688 21.5139Z"
              fill="#6D6E71"
            />
            <path
              d="M71.1116 5.61819C71.0837 5.61819 71.0557 5.62004 71.0278 5.62189C70.5664 5.66441 70.0863 6.45938 70.0918 7.20628C70.0937 7.58158 70.2202 7.94394 70.531 8.19353C70.4621 8.03453 70.4305 7.86075 70.4287 7.68327C70.4231 6.99737 70.8622 6.26711 71.2884 6.22644C71.3144 6.22459 71.3405 6.22274 71.3646 6.22274C71.8652 6.21904 72.1722 6.65535 72.3006 6.8883C72.2746 6.76628 72.2448 6.63501 72.202 6.49451C72.202 6.49266 71.8503 5.61264 71.1116 5.61819Z"
              fill="#6D6E71"
            />
            <path
              d="M69.1948 6.22643C68.7836 6.23013 68.3705 6.76812 68.376 7.32091C68.3779 7.58158 68.4728 7.84411 68.7073 8.05672C68.6775 7.96613 68.6645 7.87369 68.6626 7.7794C68.6589 7.27284 69.0366 6.77737 69.4144 6.77367C69.4888 6.77182 69.5651 6.79216 69.6377 6.83468C69.7735 6.91603 69.874 7.02325 69.9484 7.14158C69.9131 6.8088 69.7642 6.48711 69.4386 6.29299C69.3585 6.24492 69.2767 6.22458 69.1948 6.22643Z"
              fill="#6D6E71"
            />
            <path
              d="M67.8828 7.62427C67.6074 7.62612 67.4679 7.91268 67.4697 8.24176C67.4716 8.55235 67.6 8.89992 67.8568 9.07925C67.7917 8.93689 67.7582 8.7779 67.7563 8.6263C67.7545 8.3231 67.881 8.05688 68.1359 8.05503C68.1731 8.05503 68.2122 8.06058 68.2532 8.07167C68.3741 8.10495 68.469 8.16596 68.5434 8.24361C68.4802 7.96999 68.3146 7.72225 68.0094 7.64091C67.9647 7.62981 67.9219 7.62427 67.8828 7.62427Z"
              fill="#6D6E71"
            />
            <path
              d="M66.9692 8.78712C66.9451 8.78712 66.919 8.78897 66.8929 8.79082C66.6976 8.80931 66.5896 9.14763 66.5934 9.49151C66.5952 9.81689 66.6957 10.1478 66.9171 10.2162C66.8371 10.085 66.798 9.89269 66.7962 9.70042C66.7943 9.38428 66.8929 9.07183 67.0716 9.0552C67.0958 9.05335 67.1181 9.0515 67.1404 9.0515C67.306 9.04965 67.4289 9.10881 67.5145 9.1994C67.4475 8.96645 67.2763 8.78527 66.9692 8.78712Z"
              fill="#6D6E71"
            />
            <path
              d="M66.1504 9.85572C65.9587 9.85757 65.7838 10.1035 65.7131 10.6341C65.7094 10.6618 65.7075 10.6914 65.7075 10.7246C65.7094 10.9299 65.7987 11.2146 66.1057 11.27C66.0183 11.1757 65.9885 11.0445 65.9866 10.9373C65.9866 10.9114 65.9885 10.8873 65.9904 10.8652C66.0462 10.4399 66.1858 10.244 66.3402 10.2421C66.463 10.2421 66.5951 10.366 66.7012 10.6008L66.69 10.5398C66.5505 10.0961 66.3402 9.85387 66.1504 9.85572Z"
              fill="#6D6E71"
            />
            <path
              d="M71.2881 6.22662C70.7541 6.27654 70.194 7.41908 70.5308 8.19372C70.6722 8.30649 70.849 8.39893 71.0704 8.45624C71.0704 8.45624 72.7042 8.87406 72.2986 6.88848C72.1646 6.64445 71.8334 6.17301 71.2881 6.22662Z"
              fill="#5EAC41"
            />
            <path
              d="M69.6377 6.83474C69.139 6.53893 68.4896 7.36903 68.7073 8.05492C68.8339 8.16955 68.9958 8.26938 69.2079 8.34518C69.6322 8.49678 70.0173 7.79795 69.9485 7.14163C69.8722 7.02146 69.7736 6.91608 69.6377 6.83474Z"
              fill="#5EAC41"
            />
            <path
              d="M68.2532 8.07157C67.7768 7.94401 67.6391 8.61141 67.8569 9.07915C67.9443 9.14016 68.0448 9.18268 68.1639 9.19563C68.4653 9.2289 68.6477 8.70016 68.5435 8.24351C68.4672 8.16586 68.3723 8.103 68.2532 8.07157Z"
              fill="#5EAC41"
            />
            <path
              d="M66.9172 10.2161L67.0344 10.229C67.4196 10.1939 67.6317 9.61154 67.5145 9.19741C67.4178 9.09388 67.2726 9.03287 67.0716 9.05321C66.7851 9.08279 66.7032 9.86852 66.9172 10.2161Z"
              fill="#5EAC41"
            />
            <path
              d="M65.9905 10.865C65.9756 10.9759 65.9979 11.1534 66.1058 11.268C66.1598 11.2773 66.2193 11.281 66.2863 11.2754C66.2863 11.2754 66.8278 11.1479 66.7013 10.6025C66.4631 10.0774 66.091 10.0996 65.9905 10.865Z"
              fill="#5EAC41"
            />
            <path
              d="M77.2109 4.97517C76.3271 4.9419 74.4048 4.8624 74.4625 7.14563C74.4979 8.56549 75.3948 9.03323 76.2136 9.71912C77.0323 10.405 78.3367 12.8879 77.3505 14.1469C76.3643 15.4059 74.5407 16.0031 73.962 17.2233C73.2697 18.6838 73.5116 21.884 76.8406 20.9245C77.5366 20.723 78.3721 19.5897 78.5712 18.6394C78.7703 17.691 79.9929 13.2762 81.0535 10.8543C82.1477 8.35288 79.8347 5.07871 77.2109 4.97517Z"
              fill="#5EAC41"
            />
            <path
              d="M76.8647 4.10438C76.8647 4.10438 74.9797 4.378 75.9529 2.03191C75.9529 2.03191 76.4311 1.13156 77.2145 1.29055C77.9998 1.4514 78.6027 3.8474 76.8647 4.10438Z"
              fill="#5EAC41"
            />
            <path
              d="M80.6853 6.3007C80.075 6.17683 80.0619 4.69411 80.983 4.88454C81.3868 4.96773 81.2547 6.41717 80.6853 6.3007Z"
              fill="#5EAC41"
            />
            <path
              d="M81.3157 7.4192C81.3157 7.4192 80.7426 7.22508 80.9957 6.64641C81.3716 5.79043 81.9335 5.77564 81.9577 6.84423C81.9614 7.07533 81.8237 7.52458 81.3157 7.4192Z"
              fill="#5EAC41"
            />
            <path
              d="M77.4584 4.99539C77.3765 4.98615 77.2946 4.9806 77.2109 4.9769C76.394 4.94547 74.6913 4.87522 74.4829 6.66668C74.6932 4.87707 76.3958 4.94547 77.2109 4.9769C77.2946 4.97875 77.3765 4.9843 77.4584 4.99539C77.6817 5.02127 77.9012 5.06934 78.1171 5.13775C77.9031 5.06934 77.6817 5.02127 77.4584 4.99539ZM78.119 5.13775C78.1227 5.13775 78.1264 5.13959 78.1301 5.14144C78.1245 5.13959 78.1227 5.13775 78.119 5.13775ZM78.1338 5.14144C78.1357 5.14144 78.1376 5.14329 78.1394 5.14329C78.1376 5.14329 78.1357 5.14329 78.1338 5.14144ZM78.1469 5.14699C78.1469 5.14699 78.1487 5.14699 78.1487 5.14884C78.1487 5.14699 78.1487 5.14699 78.1469 5.14699ZM78.5749 18.6245C78.5749 18.6264 78.5749 18.6264 78.5749 18.6245C78.573 18.6301 78.573 18.6338 78.5711 18.6375L78.5749 18.6245Z"
              fill="#828285"
            />
            <path
              d="M77.4585 4.99539C77.3766 4.98615 77.2947 4.9806 77.211 4.9769C76.3941 4.94547 74.6915 4.87522 74.4831 6.66668C74.4663 6.81458 74.4589 6.97357 74.4626 7.14736C74.4979 8.56721 75.3949 9.03495 76.2136 9.72085C76.8705 10.2718 77.8418 11.98 77.6892 13.2834C77.652 13.6033 77.546 13.8991 77.3524 14.1468C76.3662 15.4058 74.5407 16.003 73.9639 17.2232C73.8243 17.519 73.722 17.8887 73.6755 18.2788C73.534 19.4879 73.936 20.9133 75.4153 21.0834C75.8098 21.1296 76.2825 21.0852 76.8426 20.9244C77.5385 20.7229 78.374 19.5896 78.5731 18.6393C78.575 18.6356 78.575 18.6319 78.575 18.6282C78.214 19.2882 77.7078 19.9353 77.3375 20.0425C76.8147 20.1941 76.3699 20.2348 75.9996 20.1923C74.3956 20.0074 74.1518 18.2381 74.8534 16.7905C75.3428 15.7774 77.157 14.8956 77.9795 13.8436C78.802 12.7935 77.7134 10.7229 77.0305 10.1516C76.3495 9.57849 75.5995 9.19025 75.5716 8.00334C75.5232 6.09911 77.1273 6.16381 77.8642 6.19339C77.933 6.19709 78.0037 6.20264 78.0707 6.21003C79.7957 6.4097 81.3011 8.21595 81.2955 9.97228C81.5672 7.96636 80.0618 5.77372 78.1526 5.14884C78.1526 5.14884 78.1507 5.14884 78.1489 5.14699C78.1451 5.14699 78.1433 5.14514 78.1396 5.14329C78.1377 5.14329 78.1358 5.14329 78.134 5.14144C78.1321 5.14144 78.1321 5.13959 78.1303 5.13959C78.1265 5.13959 78.1247 5.13775 78.121 5.1359C77.9032 5.06934 77.6818 5.02127 77.4585 4.99539Z"
              fill="#6D6E71"
            />
            <path
              d="M81.2935 9.97049C81.2991 8.14206 79.6709 6.26371 77.8622 6.19161C77.1253 6.16203 75.5231 6.09732 75.5697 8.00155C75.5994 9.18846 76.3475 9.57671 77.0304 10.1498C77.7133 10.7211 78.8019 12.7917 77.9794 13.8418C77.1569 14.8919 75.3426 15.7756 74.8514 16.7888C73.988 18.5728 74.5592 20.8431 77.3356 20.0407C77.7077 19.9335 78.2139 19.2864 78.5749 18.6264C78.7814 17.6558 79.9966 13.265 81.0535 10.8542C81.1782 10.5676 81.2526 10.27 81.2935 9.97049Z"
              fill="#5EAC41"
            />
            <path
              d="M77.1326 1.27754C76.3976 1.19435 75.9547 2.03184 75.9547 2.03184C75.9528 2.03184 76.3976 1.19435 77.1326 1.27754ZM77.2163 1.29048C77.2182 1.29048 77.2201 1.29048 77.2201 1.29048C77.2182 1.29233 77.2182 1.29048 77.2163 1.29048ZM77.2219 1.29233C77.2238 1.29233 77.2238 1.29233 77.2238 1.29233H77.2219ZM77.2294 1.29418C77.2647 1.30342 77.2982 1.31452 77.3336 1.333C77.3001 1.31452 77.2647 1.30342 77.2294 1.29418ZM77.3354 1.333L77.3373 1.33485C77.3373 1.333 77.3354 1.333 77.3354 1.333ZM75.9491 2.04478C75.9491 2.04478 75.9491 2.04663 75.9473 2.04848C75.9473 2.04663 75.9473 2.04478 75.9491 2.04478Z"
              fill="#828285"
            />
            <path
              d="M77.1348 1.27754H77.1329C76.3979 1.19435 75.955 2.03184 75.955 2.03184C75.9532 2.03369 75.9532 2.03738 75.9513 2.03923C75.9513 2.04108 75.9494 2.04293 75.9494 2.04293C75.9494 2.04478 75.9476 2.04663 75.9476 2.04663C75.4545 3.24278 75.7113 3.7512 76.0778 3.9638C75.9271 3.68649 75.9104 3.22614 76.2286 2.4589C76.2286 2.4589 76.6379 1.68797 77.3134 1.76562C77.3376 1.76931 77.3637 1.77301 77.3897 1.77671C77.6149 1.82293 77.8233 2.06881 77.9554 2.39235C77.8698 1.91352 77.6298 1.4846 77.3451 1.33485C77.3432 1.33485 77.3432 1.333 77.3413 1.333C77.3395 1.333 77.3395 1.33115 77.3395 1.33115C77.3376 1.33115 77.3358 1.32931 77.3358 1.32931C77.3004 1.31267 77.2669 1.29973 77.2316 1.29048C77.2297 1.29048 77.2278 1.28863 77.2278 1.28863C77.226 1.28863 77.226 1.28863 77.2241 1.28863C77.2222 1.28863 77.2204 1.28863 77.2185 1.28863C77.1888 1.28494 77.1608 1.28124 77.1348 1.27754Z"
              fill="#6D6E71"
            />
            <path
              d="M76.865 4.10439C77.8531 3.95834 78.0838 3.119 77.9554 2.39428C77.8233 2.07074 77.6149 1.82486 77.3898 1.77864C76.6696 1.63074 76.2286 2.46084 76.2286 2.46084C75.9085 3.22808 75.9272 3.68842 76.0779 3.96573C76.4221 4.16725 76.865 4.10439 76.865 4.10439Z"
              fill="#5EAC41"
            />
            <path
              d="M79.6746 5.15069C79.1889 5.15254 79.1628 3.74932 79.9965 3.62175C80.7743 3.50158 80.5603 5.14699 79.6746 5.15069Z"
              fill="#5EAC41"
            />
            <path
              d="M80.1233 3.61826C80.114 3.61642 80.1066 3.61642 80.0973 3.61642C80.0657 3.61457 80.0322 3.61642 79.9968 3.62196C79.9949 3.62196 79.9931 3.62196 79.9931 3.62196C79.9912 3.62196 79.9912 3.62196 79.9894 3.62196C79.9875 3.62196 79.9856 3.62196 79.9856 3.62196C79.9838 3.62196 79.9838 3.62196 79.9819 3.62196C79.9819 3.62196 79.9782 3.62196 79.9782 3.62381C79.2655 3.75507 79.2022 4.83845 79.526 5.09358C79.4553 4.99005 79.4162 4.85139 79.4162 4.70534C79.4106 4.36147 79.5986 3.97508 80.0657 3.9381C80.0898 3.93625 80.1122 3.93625 80.1364 3.9381C80.289 3.95659 80.4025 4.06936 80.4788 4.15995C80.4769 3.88449 80.3652 3.646 80.1233 3.61826Z"
              fill="#6D6E71"
            />
            <path
              d="M80.475 4.16366C80.3875 4.06013 80.2517 3.92702 80.0637 3.94181C79.3938 3.99542 79.2989 4.76636 79.5241 5.09544C79.5687 5.13057 79.619 5.1509 79.6767 5.1509C80.1828 5.14905 80.4694 4.60367 80.475 4.16366Z"
              fill="#5EAC41"
            />
            <path
              d="M80.9084 4.87345C80.6888 4.84757 80.5288 4.92337 80.4208 5.05278C80.5269 4.92337 80.6888 4.84757 80.9084 4.87345C80.9326 4.87715 80.9586 4.88085 80.9828 4.88455C80.9567 4.879 80.9326 4.8753 80.9084 4.87345Z"
              fill="#828285"
            />
            <path
              d="M80.9083 4.87345C80.6888 4.84757 80.5269 4.92337 80.4208 5.05278V5.05463C80.4208 5.05463 80.4208 5.05463 80.4189 5.05463C80.2198 5.29867 80.2087 5.72574 80.352 6.01414C80.352 6.0086 80.3501 6.0012 80.3482 5.99566C80.2887 5.60557 80.4636 5.14892 80.9363 5.20253H80.9381C80.9604 5.20438 80.9828 5.20808 81.007 5.21363C81.1186 5.23766 81.1856 5.37447 81.2116 5.55195C81.2358 5.23211 81.1633 4.92522 80.9846 4.88639H80.9809C80.9567 4.88085 80.9325 4.8753 80.9083 4.87345Z"
              fill="#6D6E71"
            />
            <path
              d="M80.6852 6.30071C81.0015 6.36542 81.182 5.94945 81.2118 5.55196C81.1876 5.37448 81.1206 5.23582 81.009 5.21179C80.4749 5.10086 80.2832 5.59818 80.3539 6.0123C80.4247 6.16021 80.5363 6.27113 80.6852 6.30071Z"
              fill="#5EAC41"
            />
            <path
              d="M81.6044 6.02343C81.4257 6.00495 81.208 6.19722 81.0275 6.57807C81.2062 6.19907 81.4239 6.00495 81.6044 6.02343ZM81.0201 6.59101C81.0201 6.59286 81.0182 6.59286 81.0182 6.5947C81.0182 6.59286 81.0201 6.59101 81.0201 6.59101ZM81.0126 6.6058V6.60765C81.0126 6.60765 81.0126 6.60765 81.0126 6.6058ZM81.0052 6.62244C81.0033 6.62428 81.0033 6.62613 81.0015 6.62798C81.0033 6.62613 81.0052 6.62428 81.0052 6.62244ZM81.9561 6.84983V6.85168C81.9561 6.85168 81.9561 6.85168 81.9561 6.84983ZM81.9561 6.85353C81.9561 6.85538 81.9561 6.85723 81.9561 6.85908C81.9561 6.85538 81.9561 6.85353 81.9561 6.85353ZM81.3159 7.41926C81.3252 7.42111 81.3364 7.42295 81.3457 7.4248C81.3346 7.42295 81.3252 7.42111 81.3159 7.41926Z"
              fill="#828285"
            />
            <path
              d="M81.6062 6.02344H81.6044C81.4257 6.00495 81.208 6.19722 81.0275 6.57622C81.0256 6.57991 81.0238 6.58546 81.0201 6.58916C81.0201 6.59101 81.0182 6.59101 81.0182 6.59286C81.0163 6.59655 81.0145 6.6021 81.0126 6.6058V6.60765C81.0108 6.61134 81.0089 6.61689 81.007 6.62059C81.0052 6.62244 81.0052 6.62429 81.0033 6.62613C81.0015 6.63168 80.9977 6.63908 80.9959 6.64462C80.9624 6.72227 80.9419 6.79437 80.9345 6.85723C80.8861 7.26951 81.3159 7.41741 81.3159 7.41741C81.3252 7.41926 81.3364 7.42111 81.3457 7.42295H81.3476C81.3587 7.4248 81.3699 7.4248 81.3792 7.42665C81.4201 7.4322 81.4592 7.4322 81.4946 7.43035C81.4704 7.43035 81.4443 7.43035 81.4183 7.42665C81.3997 7.4248 81.3811 7.42111 81.3624 7.41741C81.3624 7.41741 80.901 7.26766 81.0908 6.86278C81.2322 6.56328 81.4127 6.41353 81.5653 6.43016C81.7197 6.44865 81.8425 6.63723 81.863 7.01992C81.8686 7.11606 81.8332 7.26211 81.7234 7.3527C81.8946 7.23438 81.9542 7.01068 81.956 6.85908V6.85723C81.956 6.85723 81.956 6.85723 81.956 6.85538V6.85353C81.956 6.85168 81.956 6.84983 81.956 6.84983V6.84799V6.84614C81.956 6.84429 81.956 6.84429 81.956 6.84244C81.956 6.8332 81.9561 6.8258 81.9542 6.81656C81.9542 6.81471 81.9542 6.81101 81.9542 6.80916C81.9542 6.80362 81.9542 6.79622 81.9542 6.79067C81.9337 6.29336 81.7923 6.04747 81.6099 6.02344H81.6062Z"
              fill="#6D6E71"
            />
            <path
              d="M81.7235 7.35449C81.6621 7.39701 81.5877 7.42659 81.4946 7.43399C81.5951 7.43214 81.6677 7.40071 81.7235 7.35449Z"
              fill="#221F20"
            />
            <path
              d="M81.863 7.02363C81.822 6.26379 81.3736 6.26379 81.0907 6.86464C80.9009 7.26952 81.3624 7.42112 81.3624 7.42112C81.4108 7.43036 81.4554 7.43406 81.4945 7.43406C81.5876 7.42666 81.662 7.39893 81.7234 7.35456C81.8332 7.26582 81.8667 7.11977 81.863 7.02363Z"
              fill="#5EAC41"
            />
            <path
              d="M78.9731 2.0873C78.8912 2.07805 78.8075 2.08915 78.7238 2.12797C78.1748 2.3794 78.026 2.99874 78.1078 3.49606C78.0353 2.97841 78.2437 2.34058 78.7126 2.14091C78.7759 2.11318 78.8689 2.091 78.975 2.10394C79.1741 2.12612 79.416 2.26848 79.6021 2.71588C79.79 3.24833 79.6523 3.96195 78.7517 4.1875C80.2124 3.82144 79.6728 2.16864 78.9731 2.0873ZM78.2325 3.8843C78.3256 4.06178 78.4558 4.1838 78.6084 4.20044C78.6475 4.20414 78.6884 4.20229 78.7294 4.19305L78.6158 4.20044C78.4465 4.15422 78.3181 4.0396 78.2325 3.8843ZM78.7387 4.18935C78.7368 4.18935 78.7368 4.18935 78.7368 4.1912C78.7368 4.1912 78.7387 4.1912 78.7387 4.18935Z"
              fill="#828285"
            />
            <path
              d="M78.1079 3.49805C78.1265 3.6404 78.1693 3.77351 78.2326 3.88629C78.1749 3.77351 78.1321 3.6404 78.1079 3.49805ZM78.7443 4.18949C78.7425 4.18949 78.7406 4.19134 78.7387 4.19134C78.7406 4.18949 78.7425 4.18949 78.7443 4.18949ZM78.7369 4.19134C78.735 4.19134 78.7331 4.19318 78.7294 4.19318C78.7313 4.19318 78.7331 4.19134 78.7369 4.19134Z"
              fill="#5EAC41"
            />
            <path
              d="M78.975 2.10413C78.8689 2.09119 78.7759 2.11337 78.7126 2.1411C78.2437 2.34262 78.0353 2.98045 78.1079 3.4981C78.132 3.64046 78.1748 3.77542 78.2325 3.88634C78.32 4.04164 78.4465 4.15626 78.6159 4.20248L78.7294 4.19509C78.7312 4.19509 78.7349 4.19324 78.7368 4.19324H78.7387C78.7405 4.19324 78.7424 4.19324 78.7443 4.19139C78.7461 4.19139 78.748 4.19139 78.748 4.18954H78.7498C79.6505 3.96399 79.7882 3.25221 79.6002 2.71792C79.416 2.26867 79.1722 2.12816 78.975 2.10413Z"
              fill="#6D6E71"
            />
            <path
              d="M79.6023 2.71604C79.3511 2.49788 79.0831 2.50343 78.9008 2.58477C78.2644 2.87688 78.0876 4.03421 78.6161 4.2006L78.7296 4.1932C79.6507 3.9732 79.7921 3.25403 79.6023 2.71604Z"
              fill="#5EAC41"
            />
          </svg>