<svg width="88" height="30" viewBox="0 0 88 30" fill="none" xmlns="http://www.w3.org/2000/svg">
<path d="M44.6409 3.2373C43.6007 3.2373 42.5978 3.40924 41.645 3.72168C42.1716 3.59042 42.7113 3.49428 43.2621 3.43143C43.7105 3.30756 44.1701 3.2373 44.6409 3.2373Z" fill="#285A8B"/>
<path d="M34.6433 20.9352L32.8476 16.6423L28.3016 5.83996L24.1557 15.4979L21.8036 20.9352H19.4497L28.3519 0.859375L37.0233 20.9352H34.6433Z" fill="#6B6E71"/>
<path d="M7.36907 9.96831V1.75977H5.22168V20.9204H7.36907V12.662L7.90684 12.1277L15.8097 20.9204H18.7777L9.41597 10.6801L18.4707 1.75977H15.5809L7.36907 9.96831Z" fill="#6B6E71"/>
<path d="M40.019 3.74165H40.6591C43.2419 3.74165 45.5698 4.04669 45.5698 7.19885C45.5698 10.1717 43.1154 10.6302 40.6833 10.6302H40.019V3.74165ZM40.019 12.5085H40.5567L40.6442 12.0556H43.2791L42.8846 12.331C45.8508 12.0778 47.719 9.99419 47.719 7.0454C47.719 2.72482 44.3175 1.75977 40.6591 1.75977H37.8716V20.9204H40.0208V12.5085H40.019Z" fill="#6B6E71"/>
<path d="M56.3383 3.74165H61.0462V1.75977H49.5352V3.74165H54.1909V20.9204H56.3383V3.74165Z" fill="#6B6E71"/>
<path d="M25.4639 13.3815C28.0485 11.6455 31.3422 10.4937 34.9838 10.2423C43.6831 9.63772 51.1357 14.3891 51.8763 20.9189C49.0777 15.2358 41.8502 11.333 32.7787 11.9616C30.449 12.1243 27.5052 12.7178 25.4639 13.3815Z" fill="#38A628"/>
<path d="M48.5913 23.0771H49.3459L50.8551 25.7702H50.9188L52.428 23.0771H53.1826L51.2164 26.4688V28.8464H50.5575V26.4688L48.5913 23.0771Z" fill="#6B6E71"/>
<path d="M47.3873 24.9088C47.3199 24.7242 47.231 24.5588 47.1207 24.4125C47.0124 24.2644 46.8827 24.1383 46.7315 24.0341C46.5824 23.9299 46.4129 23.8504 46.2229 23.7956C46.0329 23.7407 45.8245 23.7133 45.5977 23.7133C45.2259 23.7133 44.8878 23.7992 44.5834 23.9711C44.279 24.1429 44.0369 24.3961 43.8572 24.7306C43.6774 25.0651 43.5875 25.4755 43.5875 25.9618C43.5875 26.448 43.6784 26.8584 43.8602 27.1929C44.042 27.5275 44.2882 27.7806 44.5987 27.9525C44.9093 28.1243 45.2586 28.2102 45.6468 28.2102C46.0063 28.2102 46.323 28.1417 46.5967 28.0046C46.8725 27.8656 47.087 27.67 47.2402 27.4178C47.3955 27.1637 47.4731 26.8648 47.4731 26.5211L47.706 26.565H45.8184V25.9618H48.2086V26.565C48.2086 27.0275 48.0983 27.4297 47.8776 27.7715C47.659 28.1133 47.3567 28.3784 46.9706 28.5667C46.5865 28.7531 46.1452 28.8464 45.6468 28.8464C45.0911 28.8464 44.6028 28.7294 44.182 28.4954C43.7632 28.2614 43.4363 27.9287 43.2014 27.4973C42.9685 27.0659 42.8521 26.554 42.8521 25.9618C42.8521 25.5176 42.9184 25.1181 43.0512 24.7635C43.1861 24.407 43.3761 24.1036 43.6212 23.8531C43.8664 23.6027 44.1565 23.4108 44.4915 23.2773C44.8265 23.1439 45.1953 23.0771 45.5977 23.0771C45.9287 23.0771 46.2372 23.1219 46.5232 23.2115C46.8112 23.2993 47.0676 23.4245 47.2923 23.5872C47.5191 23.748 47.7081 23.9409 47.8592 24.1657C48.0104 24.3888 48.1146 24.6364 48.1718 24.9088H47.3873Z" fill="#6B6E71"/>
<path d="M42.0868 25.9618C42.0868 26.554 41.963 27.0659 41.7154 27.4973C41.4678 27.9287 41.1281 28.2614 40.6964 28.4954C40.2647 28.7294 39.7717 28.8464 39.2172 28.8464C38.6628 28.8464 38.1697 28.7294 37.738 28.4954C37.3063 28.2614 36.9666 27.9287 36.719 27.4973C36.4715 27.0659 36.3477 26.554 36.3477 25.9618C36.3477 25.3695 36.4715 24.8576 36.719 24.4262C36.9666 23.9948 37.3063 23.6621 37.738 23.4281C38.1697 23.1941 38.6628 23.0771 39.2172 23.0771C39.7717 23.0771 40.2647 23.1941 40.6964 23.4281C41.1281 23.6621 41.4678 23.9948 41.7154 24.4262C41.963 24.8576 42.0868 25.3695 42.0868 25.9618ZM41.325 25.9618C41.325 25.4755 41.2308 25.0651 41.0424 24.7306C40.8562 24.3961 40.6033 24.1429 40.2838 23.9711C39.9664 23.7992 39.6108 23.7133 39.2172 23.7133C38.8236 23.7133 38.467 23.7992 38.1475 23.9711C37.8301 24.1429 37.5772 24.3961 37.3888 24.7306C37.2026 25.0651 37.1095 25.4755 37.1095 25.9618C37.1095 26.448 37.2026 26.8584 37.3888 27.1929C37.5772 27.5275 37.8301 27.7806 38.1475 27.9525C38.467 28.1243 38.8236 28.2102 39.2172 28.2102C39.6108 28.2102 39.9664 28.1243 40.2838 27.9525C40.6033 27.7806 40.8562 27.5275 41.0424 27.1929C41.2308 26.8584 41.325 26.448 41.325 25.9618Z" fill="#6B6E71"/>
<path d="M34.0522 28.8464V23.0771H34.6058V28.2266H36.7305V28.8464H34.0522Z" fill="#6B6E71"/>
<path d="M32.9042 25.9618C32.9042 26.554 32.7804 27.0659 32.5328 27.4973C32.2852 27.9287 31.9455 28.2614 31.5138 28.4954C31.0821 28.7294 30.589 28.8464 30.0346 28.8464C29.4802 28.8464 28.9871 28.7294 28.5554 28.4954C28.1237 28.2614 27.784 27.9287 27.5364 27.4973C27.2888 27.0659 27.165 26.554 27.165 25.9618C27.165 25.3695 27.2888 24.8576 27.5364 24.4262C27.784 23.9948 28.1237 23.6621 28.5554 23.4281C28.9871 23.1941 29.4802 23.0771 30.0346 23.0771C30.589 23.0771 31.0821 23.1941 31.5138 23.4281C31.9455 23.6621 32.2852 23.9948 32.5328 24.4262C32.7804 24.8576 32.9042 25.3695 32.9042 25.9618ZM32.1423 25.9618C32.1423 25.4755 32.0482 25.0651 31.8598 24.7306C31.6736 24.3961 31.4207 24.1429 31.1012 23.9711C30.7837 23.7992 30.4282 23.7133 30.0346 23.7133C29.641 23.7133 29.2844 23.7992 28.9649 23.9711C28.6474 24.1429 28.3946 24.3961 28.2062 24.7306C28.02 25.0651 27.9269 25.4755 27.9269 25.9618C27.9269 26.448 28.02 26.8584 28.2062 27.1929C28.3946 27.5275 28.6474 27.7806 28.9649 27.9525C29.2844 28.1243 29.641 28.2102 30.0346 28.2102C30.4282 28.2102 30.7837 28.1243 31.1012 27.9525C31.4207 27.7806 31.6736 27.5275 31.8598 27.1929C32.0482 26.8584 32.1423 26.448 32.1423 25.9618Z" fill="#6B6E71"/>
<path d="M24.0161 28.77H22.3042V23.1543H24.092C24.6301 23.1543 25.0906 23.2667 25.4734 23.4916C25.8562 23.7146 26.1497 24.0354 26.3537 24.454C26.5578 24.8708 26.6598 25.3699 26.6598 25.9512C26.6598 26.5361 26.5569 27.0398 26.351 27.462C26.1452 27.8825 25.8454 28.206 25.4517 28.4327C25.0581 28.6576 24.5795 28.77 24.0161 28.77ZM22.976 28.1667H23.9728C24.4314 28.1667 24.8116 28.0772 25.1131 27.898C25.4147 27.7189 25.6395 27.4639 25.7876 27.133C25.9357 26.8021 26.0097 26.4082 26.0097 25.9512C26.0097 25.4978 25.9366 25.1075 25.7903 24.7803C25.6441 24.4513 25.4255 24.199 25.1348 24.0235C24.8441 23.8462 24.482 23.7575 24.0486 23.7575H22.976V28.1667Z" fill="#6B6E71"/>
<path d="M21.0433 25.9618C21.0433 26.554 20.9195 27.0659 20.6719 27.4973C20.4243 27.9287 20.0847 28.2614 19.653 28.4954C19.2213 28.7294 18.7282 28.8464 18.1738 28.8464C17.6193 28.8464 17.1262 28.7294 16.6945 28.4954C16.2628 28.2614 15.9232 27.9287 15.6756 27.4973C15.428 27.0659 15.3042 26.554 15.3042 25.9618C15.3042 25.3695 15.428 24.8576 15.6756 24.4262C15.9232 23.9948 16.2628 23.6621 16.6945 23.4281C17.1262 23.1941 17.6193 23.0771 18.1738 23.0771C18.7282 23.0771 19.2213 23.1941 19.653 23.4281C20.0847 23.6621 20.4243 23.9948 20.6719 24.4262C20.9195 24.8576 21.0433 25.3695 21.0433 25.9618ZM20.2815 25.9618C20.2815 25.4755 20.1873 25.0651 19.999 24.7306C19.8128 24.3961 19.5599 24.1429 19.2403 23.9711C18.9229 23.7992 18.5674 23.7133 18.1738 23.7133C17.7802 23.7133 17.4236 23.7992 17.104 23.9711C16.7866 24.1429 16.5337 24.3961 16.3454 24.7306C16.1591 25.0651 16.066 25.4755 16.066 25.9618C16.066 26.448 16.1591 26.8584 16.3454 27.1929C16.5337 27.5275 16.7866 27.7806 17.104 27.9525C17.4236 28.1243 17.7802 28.2102 18.1738 28.2102C18.5674 28.2102 18.9229 28.1243 19.2403 27.9525C19.5599 27.7806 19.8128 27.5275 19.999 27.1929C20.1873 26.8584 20.2815 26.448 20.2815 25.9618Z" fill="#6B6E71"/>
<path d="M11.8608 28.8464V23.0771H13.3869C13.7412 23.0771 14.0308 23.1588 14.2557 23.3222C14.4821 23.4837 14.6497 23.7025 14.7585 23.9786C14.8673 24.2547 14.9217 24.5627 14.9217 24.9026C14.9217 25.2425 14.8673 25.5514 14.7585 25.8294C14.6512 26.1073 14.4851 26.3289 14.2601 26.4942C14.0352 26.6576 13.7471 26.7393 13.3957 26.7393H12.3019V26.1195H13.378C13.6206 26.1195 13.8154 26.066 13.9624 25.9589C14.1094 25.8519 14.216 25.7073 14.2822 25.5251C14.3498 25.3411 14.3836 25.1336 14.3836 24.9026C14.3836 24.6716 14.3498 24.465 14.2822 24.2828C14.216 24.1007 14.1087 23.9579 13.9602 23.8546C13.8117 23.7495 13.6147 23.6969 13.3692 23.6969H12.4077V28.8464H11.8608Z" fill="#6B6E71"/>
<path d="M69.4403 24.4671C68.8802 24.2378 68.134 22.6571 68.054 21.8511C67.974 21.0469 67.3618 17.2754 66.7012 15.1733C66.0183 13.001 68.2364 10.4941 70.4191 10.642C71.1541 10.6919 72.7563 10.7991 72.5014 12.6867C72.4716 12.9067 72.4139 13.0898 72.3432 13.2562C72.7302 12.9104 73.028 12.463 73.1266 11.7365C73.4318 9.47172 71.5114 9.34415 70.6294 9.28499C68.0112 9.10566 65.354 12.1136 66.1709 14.7167C66.9617 17.2366 67.6967 21.7586 67.7935 22.7219C67.8884 23.6869 68.5955 24.9034 69.2654 25.1789C72.4697 26.4915 73.0578 23.3338 72.5274 21.8067C72.373 21.363 72.0566 20.9766 71.6789 20.605C71.9413 20.9045 72.1534 21.2022 72.2595 21.498C72.9256 23.3652 72.1143 25.5616 69.4403 24.4671Z" fill="#38A628"/>
<path d="M69.498 18.3883C68.6551 17.0313 70.2219 14.7037 71.1095 14.1084C71.5393 13.82 71.9822 13.5834 72.3451 13.2561C72.4139 13.0898 72.4716 12.9067 72.5033 12.6867C72.7582 10.7973 71.156 10.6919 70.421 10.642C68.2364 10.4941 66.0202 13.001 66.7031 15.1733C67.3637 17.2754 67.9759 21.0469 68.0559 21.8511C68.1359 22.6571 68.8821 24.236 69.4422 24.4652C72.1162 25.5597 72.9275 23.3652 72.2651 21.498C72.159 21.2022 71.9469 20.9045 71.6845 20.605C70.9774 19.9136 70.047 19.272 69.498 18.3883Z" fill="#38A628"/>
<path d="M70.5307 8.19412C70.1957 7.41948 70.754 6.27879 71.288 6.22703C71.8332 6.17526 72.1645 6.64485 72.2984 6.88888C72.2743 6.76687 72.2426 6.6356 72.2017 6.4951C72.2017 6.4951 71.8239 5.54668 71.0275 5.62248C70.3334 5.68718 69.5984 7.44352 70.5307 8.19412Z" fill="#38A628"/>
<path d="M69.6375 6.83553C69.7733 6.91687 69.8738 7.0241 69.9482 7.14242C69.9129 6.80964 69.764 6.48796 69.4384 6.29384C68.7833 5.90374 67.8827 7.30511 68.7071 8.05571C68.4893 7.36797 69.1388 6.53972 69.6375 6.83553Z" fill="#38A628"/>
<path d="M67.8568 9.07936C67.6391 8.61162 67.775 7.94422 68.2532 8.07178C68.3741 8.10321 68.469 8.16607 68.5453 8.24372C68.4821 7.9701 68.3165 7.72421 68.0113 7.64287C67.3507 7.46354 67.2911 8.68373 67.8568 9.07936Z" fill="#38A628"/>
<path d="M66.9171 10.2168C66.7031 9.86923 66.785 9.0835 67.0715 9.05577C67.2744 9.03544 67.4176 9.09644 67.5144 9.19998C67.4418 8.94854 67.2464 8.75812 66.8929 8.79325C66.5133 8.82837 66.463 10.0763 66.9171 10.2168Z" fill="#38A628"/>
<path d="M65.9905 10.8661C66.0928 10.1007 66.4631 10.0766 66.7013 10.6017L66.6901 10.5407C66.4091 9.64958 65.8528 9.57378 65.7132 10.6331C65.6871 10.8328 65.7504 11.2044 66.1058 11.2672C65.9979 11.1545 65.9756 10.977 65.9905 10.8661Z" fill="#38A628"/>
<path d="M70.3839 9.27978C68.1677 9.29642 66.0054 11.5131 66.024 13.7557C66.0259 14.0792 66.0743 14.4027 66.1748 14.7189C66.9656 17.2387 67.7006 21.7608 67.7974 22.724C67.8923 23.6891 68.5994 24.9056 69.2693 25.1811C69.8071 25.4011 70.2723 25.4953 70.6705 25.4935C72.1592 25.4824 72.7137 24.1106 72.7044 22.8923C72.7007 22.4985 72.6393 22.1213 72.5332 21.8107C72.3787 21.367 72.0624 20.9806 71.6828 20.609C71.9452 20.9085 72.1573 21.2062 72.2634 21.502C72.2652 21.5075 72.2671 21.5112 72.269 21.5168C72.7993 23.0272 72.362 24.7484 70.7542 24.7614H70.7524H70.7505C70.3765 24.7632 69.9411 24.6745 69.4386 24.4674C68.8785 24.2382 68.1324 22.6575 68.0523 21.8533C67.9723 21.049 67.3601 17.2776 66.6995 15.1755C66.6958 15.1607 66.6902 15.1459 66.6865 15.1293C66.0706 13.0383 68.11 10.6553 70.2072 10.6368H70.2109C70.2742 10.6368 70.3356 10.6386 70.3988 10.6423C70.4063 10.6423 70.4119 10.6442 70.4193 10.6442C71.0985 10.6904 72.5164 10.7847 72.5295 12.2877C72.5295 12.4116 72.522 12.5447 72.5016 12.6889C72.4718 12.9089 72.4141 13.0919 72.3434 13.2583C72.7304 12.9126 73.0282 12.4652 73.1268 11.7386C73.1491 11.5667 73.1603 11.4059 73.1584 11.258C73.1435 9.45541 71.4427 9.34264 70.6296 9.28717C70.5496 9.28163 70.4658 9.27793 70.3839 9.27978Z" fill="#6B6E71"/>
<path d="M72.5294 12.2858C72.5294 12.4097 72.5219 12.5428 72.5015 12.687C72.4717 12.907 72.414 13.09 72.3433 13.2564C72.4121 13.09 72.4717 12.907 72.5015 12.687C72.5219 12.5428 72.5312 12.4097 72.5294 12.2858ZM72.2688 21.5149C72.7992 23.0253 72.3619 24.7465 70.7541 24.7595C72.3619 24.7465 72.7973 23.0272 72.2688 21.5149Z" fill="#6B6E71"/>
<path d="M71.1116 5.61917C71.0837 5.61917 71.0557 5.62102 71.0278 5.62286C70.5664 5.66539 70.0863 6.46036 70.0918 7.20726C70.0937 7.58256 70.2202 7.94492 70.531 8.1945C70.4621 8.03551 70.4305 7.86173 70.4287 7.68424C70.4231 6.99835 70.8622 6.26809 71.2884 6.22741C71.3144 6.22556 71.3405 6.22371 71.3646 6.22371C71.8652 6.22002 72.1722 6.65633 72.3006 6.88927C72.2746 6.76725 72.2448 6.63599 72.202 6.49548C72.202 6.49364 71.8503 5.61362 71.1116 5.61917Z" fill="#6B6E71"/>
<path d="M69.1948 6.22668C68.7836 6.23038 68.3705 6.76837 68.376 7.32115C68.3779 7.58183 68.4728 7.84435 68.7073 8.05696C68.6775 7.96637 68.6645 7.87393 68.6626 7.77965C68.6589 7.27308 69.0366 6.77761 69.4144 6.77391C69.4888 6.77206 69.5651 6.7924 69.6377 6.83492C69.7735 6.91627 69.874 7.0235 69.9484 7.14182C69.9131 6.80904 69.7642 6.48735 69.4386 6.29323C69.3585 6.24517 69.2767 6.22483 69.1948 6.22668Z" fill="#6B6E71"/>
<path d="M67.8828 7.625C67.6074 7.62685 67.4679 7.91341 67.4697 8.24249C67.4716 8.55308 67.6 8.90065 67.8568 9.07998C67.7917 8.93763 67.7582 8.77863 67.7563 8.62703C67.7545 8.32383 67.881 8.05761 68.1359 8.05576C68.1731 8.05576 68.2122 8.06131 68.2532 8.0724C68.3741 8.10568 68.469 8.16669 68.5434 8.24434C68.4802 7.97072 68.3146 7.72298 68.0094 7.64164C67.9647 7.63055 67.9219 7.625 67.8828 7.625Z" fill="#6B6E71"/>
<path d="M66.9692 8.78712C66.9451 8.78712 66.919 8.78897 66.8929 8.79082C66.6976 8.80931 66.5896 9.14763 66.5934 9.49151C66.5952 9.81689 66.6957 10.1478 66.9171 10.2162C66.8371 10.085 66.798 9.89269 66.7962 9.70042C66.7943 9.38428 66.8929 9.07183 67.0716 9.0552C67.0958 9.05335 67.1181 9.0515 67.1404 9.0515C67.306 9.04965 67.4289 9.10881 67.5145 9.1994C67.4475 8.96645 67.2763 8.78527 66.9692 8.78712Z" fill="#6B6E71"/>
<path d="M66.1504 9.85646C65.9587 9.8583 65.7838 10.1042 65.7131 10.6348C65.7094 10.6625 65.7075 10.6921 65.7075 10.7254C65.7094 10.9306 65.7987 11.2153 66.1057 11.2708C66.0183 11.1765 65.9885 11.0452 65.9866 10.938C65.9866 10.9121 65.9885 10.8881 65.9904 10.8659C66.0462 10.4407 66.1858 10.2447 66.3402 10.2428C66.463 10.2428 66.5951 10.3667 66.7012 10.6015L66.69 10.5405C66.5505 10.0968 66.3402 9.85461 66.1504 9.85646Z" fill="#6B6E71"/>
<path d="M71.2881 6.22687C70.7541 6.27679 70.194 7.41933 70.5308 8.19396C70.6722 8.30674 70.849 8.39917 71.0704 8.45649C71.0704 8.45649 72.7042 8.87431 72.2986 6.88873C72.1646 6.64469 71.8334 6.17325 71.2881 6.22687Z" fill="#38A628"/>
<path d="M69.6377 6.83498C69.139 6.53918 68.4896 7.36927 68.7073 8.05517C68.8339 8.16979 68.9958 8.26963 69.2079 8.34543C69.6322 8.49703 70.0173 7.79819 69.9485 7.14188C69.8722 7.02171 69.7736 6.91633 69.6377 6.83498Z" fill="#38A628"/>
<path d="M68.2532 8.07255C67.7768 7.94498 67.6391 8.61239 67.8569 9.08013C67.9443 9.14114 68.0448 9.18366 68.1639 9.1966C68.4653 9.22988 68.6477 8.70113 68.5435 8.24449C68.4672 8.16684 68.3723 8.10398 68.2532 8.07255Z" fill="#38A628"/>
<path d="M66.9172 10.2166L67.0344 10.2295C67.4196 10.1944 67.6317 9.61203 67.5145 9.1979C67.4178 9.09437 67.2726 9.03336 67.0716 9.0537C66.7851 9.08328 66.7032 9.869 66.9172 10.2166Z" fill="#38A628"/>
<path d="M65.9905 10.8652C65.9756 10.9762 65.9979 11.1536 66.1058 11.2683C66.1598 11.2775 66.2193 11.2812 66.2863 11.2757C66.2863 11.2757 66.8278 11.1481 66.7013 10.6027C66.4631 10.0777 66.091 10.0999 65.9905 10.8652Z" fill="#38A628"/>
<path d="M77.2109 4.97493C76.3271 4.94165 74.4048 4.86216 74.4625 7.14539C74.4979 8.56524 75.3948 9.03298 76.2136 9.71888C77.0323 10.4048 78.3367 12.8877 77.3505 14.1467C76.3643 15.4057 74.5407 16.0028 73.962 17.223C73.2697 18.6836 73.5116 21.8838 76.8406 20.9243C77.5366 20.7228 78.3721 19.5895 78.5712 18.6392C78.7703 17.6908 79.9929 13.2759 81.0535 10.854C82.1477 8.35263 79.8347 5.07846 77.2109 4.97493Z" fill="#38A628"/>
<path d="M76.8647 4.10414C76.8647 4.10414 74.9797 4.37776 75.9529 2.03167C75.9529 2.03167 76.4311 1.13132 77.2145 1.29031C77.9998 1.45115 78.6027 3.84716 76.8647 4.10414Z" fill="#38A628"/>
<path d="M80.6853 6.30021C80.075 6.17634 80.0619 4.69363 80.983 4.88405C81.3868 4.96724 81.2547 6.41668 80.6853 6.30021Z" fill="#38A628"/>
<path d="M81.3157 7.41871C81.3157 7.41871 80.7426 7.22459 80.9957 6.64592C81.3716 5.78994 81.9335 5.77515 81.9577 6.84374C81.9614 7.07484 81.8237 7.52409 81.3157 7.41871Z" fill="#38A628"/>
<path d="M77.4584 4.99563C77.3765 4.98639 77.2946 4.98084 77.2109 4.97715C76.394 4.94572 74.6913 4.87546 74.4829 6.66692C74.6932 4.87731 76.3958 4.94572 77.2109 4.97715C77.2946 4.979 77.3765 4.98454 77.4584 4.99563C77.6817 5.02152 77.9012 5.06959 78.1171 5.13799C77.9031 5.06959 77.6817 5.02152 77.4584 4.99563ZM78.119 5.13799C78.1227 5.13799 78.1264 5.13984 78.1301 5.14169C78.1245 5.13984 78.1227 5.13799 78.119 5.13799ZM78.1338 5.14169C78.1357 5.14169 78.1376 5.14354 78.1394 5.14354C78.1376 5.14354 78.1357 5.14354 78.1338 5.14169ZM78.1469 5.14723C78.1469 5.14723 78.1487 5.14723 78.1487 5.14908C78.1487 5.14723 78.1487 5.14723 78.1469 5.14723ZM78.5749 18.6248C78.5749 18.6266 78.5749 18.6266 78.5749 18.6248C78.573 18.6303 78.573 18.634 78.5711 18.6377L78.5749 18.6248Z" fill="#828285"/>
<path d="M77.4585 4.99563C77.3766 4.98639 77.2947 4.98084 77.211 4.97715C76.3941 4.94572 74.6915 4.87546 74.4831 6.66692C74.4663 6.81482 74.4589 6.97382 74.4626 7.1476C74.4979 8.56746 75.3949 9.0352 76.2136 9.72109C76.8705 10.272 77.8418 11.9803 77.6892 13.2837C77.652 13.6035 77.546 13.8993 77.3524 14.147C76.3662 15.4061 74.5407 16.0032 73.9639 17.2234C73.8243 17.5192 73.722 17.889 73.6755 18.2791C73.534 19.4881 73.936 20.9135 75.4153 21.0836C75.8098 21.1299 76.2825 21.0855 76.8426 20.9246C77.5385 20.7231 78.374 19.5898 78.5731 18.6396C78.575 18.6359 78.575 18.6322 78.575 18.6285C78.214 19.2885 77.7078 19.9355 77.3375 20.0428C76.8147 20.1944 76.3699 20.235 75.9996 20.1925C74.3956 20.0077 74.1518 18.2384 74.8534 16.7908C75.3428 15.7777 77.157 14.8958 77.9795 13.8439C78.802 12.7937 77.7134 10.7231 77.0305 10.1519C76.3495 9.57874 75.5995 9.19049 75.5716 8.00358C75.5232 6.09935 77.1273 6.16406 77.8642 6.19364C77.933 6.19734 78.0037 6.20288 78.0707 6.21028C79.7957 6.40994 81.3011 8.21619 81.2955 9.97252C81.5672 7.96661 80.0618 5.77397 78.1526 5.14908C78.1526 5.14908 78.1507 5.14908 78.1489 5.14723C78.1451 5.14723 78.1433 5.14538 78.1396 5.14354C78.1377 5.14354 78.1358 5.14354 78.134 5.14169C78.1321 5.14169 78.1321 5.13984 78.1303 5.13984C78.1265 5.13984 78.1247 5.13799 78.121 5.13614C77.9032 5.06959 77.6818 5.02152 77.4585 4.99563Z" fill="#6B6E71"/>
<path d="M81.2935 9.97049C81.2991 8.14206 79.6709 6.26371 77.8622 6.19161C77.1253 6.16203 75.5231 6.09732 75.5697 8.00155C75.5994 9.18846 76.3475 9.57671 77.0304 10.1498C77.7133 10.7211 78.8019 12.7917 77.9794 13.8418C77.1569 14.8919 75.3426 15.7756 74.8514 16.7888C73.988 18.5728 74.5592 20.8431 77.3356 20.0407C77.7077 19.9335 78.2139 19.2864 78.5749 18.6264C78.7814 17.6558 79.9966 13.265 81.0535 10.8542C81.1782 10.5676 81.2526 10.27 81.2935 9.97049Z" fill="#38A628"/>
<path d="M77.1326 1.2773C76.3976 1.1941 75.9547 2.03159 75.9547 2.03159C75.9528 2.03159 76.3976 1.1941 77.1326 1.2773ZM77.2163 1.29024C77.2182 1.29024 77.2201 1.29024 77.2201 1.29024C77.2182 1.29209 77.2182 1.29024 77.2163 1.29024ZM77.2219 1.29209C77.2238 1.29209 77.2238 1.29209 77.2238 1.29209H77.2219ZM77.2294 1.29394C77.2647 1.30318 77.2982 1.31427 77.3336 1.33276C77.3001 1.31427 77.2647 1.30318 77.2294 1.29394ZM77.3354 1.33276L77.3373 1.33461C77.3373 1.33276 77.3354 1.33276 77.3354 1.33276ZM75.9491 2.04454C75.9491 2.04454 75.9491 2.04638 75.9473 2.04823C75.9473 2.04638 75.9473 2.04454 75.9491 2.04454Z" fill="#828285"/>
<path d="M77.1348 1.2773H77.1329C76.3979 1.1941 75.955 2.03159 75.955 2.03159C75.9532 2.03344 75.9532 2.03714 75.9513 2.03899C75.9513 2.04084 75.9494 2.04269 75.9494 2.04269C75.9494 2.04454 75.9476 2.04638 75.9476 2.04638C75.4545 3.24254 75.7113 3.75095 76.0778 3.96356C75.9271 3.68624 75.9104 3.2259 76.2286 2.45866C76.2286 2.45866 76.6379 1.68772 77.3134 1.76537C77.3376 1.76907 77.3637 1.77277 77.3897 1.77646C77.6149 1.82268 77.8233 2.06857 77.9554 2.3921C77.8698 1.91327 77.6298 1.48436 77.3451 1.33461C77.3432 1.33461 77.3432 1.33276 77.3413 1.33276C77.3395 1.33276 77.3395 1.33091 77.3395 1.33091C77.3376 1.33091 77.3358 1.32906 77.3358 1.32906C77.3004 1.31242 77.2669 1.29948 77.2316 1.29024C77.2297 1.29024 77.2278 1.28839 77.2278 1.28839C77.226 1.28839 77.226 1.28839 77.2241 1.28839C77.2222 1.28839 77.2204 1.28839 77.2185 1.28839C77.1888 1.28469 77.1608 1.28099 77.1348 1.2773Z" fill="#6B6E71"/>
<path d="M76.865 4.10415C77.8531 3.9581 78.0838 3.11875 77.9554 2.39404C77.8233 2.0705 77.6149 1.82461 77.3898 1.77839C76.6696 1.63049 76.2286 2.46059 76.2286 2.46059C75.9085 3.22783 75.9272 3.68818 76.0779 3.96549C76.4221 4.16701 76.865 4.10415 76.865 4.10415Z" fill="#38A628"/>
<path d="M79.6746 5.15044C79.1889 5.15229 79.1628 3.74908 79.9965 3.62151C80.7743 3.50134 80.5603 5.14675 79.6746 5.15044Z" fill="#38A628"/>
<path d="M80.1233 3.61778C80.114 3.61593 80.1066 3.61593 80.0973 3.61593C80.0657 3.61408 80.0322 3.61593 79.9968 3.62147C79.9949 3.62147 79.9931 3.62147 79.9931 3.62147C79.9912 3.62147 79.9912 3.62147 79.9894 3.62147C79.9875 3.62147 79.9856 3.62147 79.9856 3.62147C79.9838 3.62147 79.9838 3.62147 79.9819 3.62147C79.9819 3.62147 79.9782 3.62147 79.9782 3.62332C79.2655 3.75459 79.2022 4.83796 79.526 5.0931C79.4553 4.98956 79.4162 4.85091 79.4162 4.70485C79.4106 4.36098 79.5986 3.97459 80.0657 3.93761C80.0898 3.93576 80.1122 3.93576 80.1364 3.93761C80.289 3.9561 80.4025 4.06888 80.4788 4.15947C80.4769 3.884 80.3652 3.64551 80.1233 3.61778Z" fill="#6B6E71"/>
<path d="M80.475 4.16341C80.3875 4.05988 80.2517 3.92677 80.0637 3.94156C79.3938 3.99518 79.2989 4.76611 79.5241 5.0952C79.5687 5.13032 79.619 5.15066 79.6767 5.15066C80.1828 5.14881 80.4694 4.60342 80.475 4.16341Z" fill="#38A628"/>
<path d="M80.9084 4.87321C80.6888 4.84733 80.5288 4.92313 80.4208 5.05254C80.5269 4.92313 80.6888 4.84733 80.9084 4.87321C80.9326 4.87691 80.9586 4.8806 80.9828 4.8843C80.9567 4.87876 80.9326 4.87506 80.9084 4.87321Z" fill="#828285"/>
<path d="M80.9083 4.87321C80.6888 4.84733 80.5269 4.92313 80.4208 5.05254V5.05439C80.4208 5.05439 80.4208 5.05439 80.4189 5.05439C80.2198 5.29843 80.2087 5.72549 80.352 6.0139C80.352 6.00835 80.3501 6.00096 80.3482 5.99541C80.2887 5.60532 80.4636 5.14868 80.9363 5.20229H80.9381C80.9604 5.20414 80.9828 5.20784 81.007 5.21338C81.1186 5.23742 81.1856 5.37423 81.2116 5.55171C81.2358 5.23187 81.1633 4.92497 80.9846 4.88615H80.9809C80.9567 4.8806 80.9325 4.87506 80.9083 4.87321Z" fill="#6B6E71"/>
<path d="M80.6852 6.30096C81.0015 6.36566 81.182 5.94969 81.2118 5.5522C81.1876 5.37472 81.1206 5.23607 81.009 5.21203C80.4749 5.1011 80.2832 5.59842 80.3539 6.01255C80.4247 6.16045 80.5363 6.27138 80.6852 6.30096Z" fill="#38A628"/>
<path d="M81.6044 6.0227C81.4257 6.00421 81.208 6.19649 81.0275 6.57733C81.2062 6.19834 81.4239 6.00421 81.6044 6.0227ZM81.0201 6.59027C81.0201 6.59212 81.0182 6.59212 81.0182 6.59397C81.0182 6.59212 81.0201 6.59027 81.0201 6.59027ZM81.0126 6.60506V6.60691C81.0126 6.60691 81.0126 6.60691 81.0126 6.60506ZM81.0052 6.6217C81.0033 6.62355 81.0033 6.6254 81.0015 6.62725C81.0033 6.6254 81.0052 6.62355 81.0052 6.6217ZM81.9561 6.8491V6.85095C81.9561 6.85095 81.9561 6.85095 81.9561 6.8491ZM81.9561 6.8528C81.9561 6.85465 81.9561 6.8565 81.9561 6.85835C81.9561 6.85465 81.9561 6.8528 81.9561 6.8528ZM81.3159 7.41852C81.3252 7.42037 81.3364 7.42222 81.3457 7.42407C81.3346 7.42222 81.3252 7.42037 81.3159 7.41852Z" fill="#828285"/>
<path d="M81.6062 6.0227H81.6044C81.4257 6.00422 81.208 6.19649 81.0275 6.57548C81.0256 6.57918 81.0238 6.58473 81.0201 6.58843C81.0201 6.59027 81.0182 6.59027 81.0182 6.59212C81.0163 6.59582 81.0145 6.60137 81.0126 6.60506V6.60691C81.0108 6.61061 81.0089 6.61616 81.007 6.61986C81.0052 6.6217 81.0052 6.62355 81.0033 6.6254C81.0015 6.63095 80.9977 6.63834 80.9959 6.64389C80.9624 6.72154 80.9419 6.79364 80.9345 6.8565C80.8861 7.26877 81.3159 7.41667 81.3159 7.41667C81.3252 7.41852 81.3364 7.42037 81.3457 7.42222H81.3476C81.3587 7.42407 81.3699 7.42407 81.3792 7.42592C81.4201 7.43147 81.4592 7.43147 81.4946 7.42962C81.4704 7.42962 81.4443 7.42962 81.4183 7.42592C81.3997 7.42407 81.3811 7.42037 81.3624 7.41667C81.3624 7.41667 80.901 7.26692 81.0908 6.86204C81.2322 6.56254 81.4127 6.41279 81.5653 6.42943C81.7197 6.44792 81.8425 6.63649 81.863 7.01919C81.8686 7.11533 81.8332 7.26138 81.7234 7.35197C81.8946 7.23365 81.9542 7.00995 81.956 6.85835V6.8565C81.956 6.8565 81.956 6.8565 81.956 6.85465V6.8528C81.956 6.85095 81.956 6.8491 81.956 6.8491V6.84725V6.8454C81.956 6.84356 81.956 6.84356 81.956 6.84171C81.956 6.83246 81.9561 6.82507 81.9542 6.81582C81.9542 6.81398 81.9542 6.81028 81.9542 6.80843C81.9542 6.80288 81.9542 6.79549 81.9542 6.78994C81.9337 6.29262 81.7923 6.04674 81.6099 6.0227H81.6062Z" fill="#6B6E71"/>
<path d="M81.7235 7.35449C81.6621 7.39701 81.5877 7.42659 81.4946 7.43399C81.5951 7.43214 81.6677 7.40071 81.7235 7.35449Z" fill="#221F20"/>
<path d="M81.863 7.02314C81.822 6.2633 81.3736 6.2633 81.0907 6.86415C80.9009 7.26903 81.3624 7.42063 81.3624 7.42063C81.4108 7.42987 81.4554 7.43357 81.4945 7.43357C81.5876 7.42618 81.662 7.39844 81.7234 7.35407C81.8332 7.26533 81.8667 7.11928 81.863 7.02314Z" fill="#38A628"/>
<path d="M78.9731 2.08705C78.8912 2.07781 78.8075 2.0889 78.7238 2.12773C78.1748 2.37916 78.026 2.9985 78.1078 3.49582C78.0353 2.97816 78.2437 2.34034 78.7126 2.14067C78.7759 2.11294 78.8689 2.09075 78.975 2.10369C79.1741 2.12588 79.416 2.26823 79.6021 2.71564C79.79 3.24808 79.6523 3.96171 78.7517 4.18726C80.2124 3.8212 79.6728 2.1684 78.9731 2.08705ZM78.2325 3.88406C78.3256 4.06154 78.4558 4.18356 78.6084 4.2002C78.6475 4.2039 78.6884 4.20205 78.7294 4.1928L78.6158 4.2002C78.4465 4.15398 78.3181 4.03936 78.2325 3.88406ZM78.7387 4.18911C78.7368 4.18911 78.7368 4.18911 78.7368 4.19095C78.7368 4.19095 78.7387 4.19095 78.7387 4.18911Z" fill="#828285"/>
<path d="M78.1079 3.49805C78.1265 3.6404 78.1693 3.77351 78.2326 3.88629C78.1749 3.77351 78.1321 3.6404 78.1079 3.49805ZM78.7443 4.18949C78.7425 4.18949 78.7406 4.19134 78.7387 4.19134C78.7406 4.18949 78.7425 4.18949 78.7443 4.18949ZM78.7369 4.19134C78.735 4.19134 78.7331 4.19318 78.7294 4.19318C78.7313 4.19318 78.7331 4.19134 78.7369 4.19134Z" fill="#38A628"/>
<path d="M78.975 2.1034C78.8689 2.09045 78.7759 2.11264 78.7126 2.14037C78.2437 2.34189 78.0353 2.97971 78.1079 3.49737C78.132 3.63972 78.1748 3.77468 78.2325 3.88561C78.32 4.04091 78.4465 4.15553 78.6159 4.20175L78.7294 4.19436C78.7312 4.19436 78.7349 4.19251 78.7368 4.19251H78.7387C78.7405 4.19251 78.7424 4.19251 78.7443 4.19066C78.7461 4.19066 78.748 4.19066 78.748 4.18881H78.7498C79.6505 3.96326 79.7882 3.25148 79.6002 2.71719C79.416 2.26794 79.1722 2.12743 78.975 2.1034Z" fill="#6B6E71"/>
<path d="M79.6023 2.7153C79.3511 2.49715 79.0831 2.5027 78.9008 2.58404C78.2644 2.87615 78.0876 4.03348 78.6161 4.19987L78.7296 4.19247C79.6507 3.97247 79.7921 3.2533 79.6023 2.7153Z" fill="#38A628"/>
</svg>
