<svg width="24" height="23" viewBox="0 0 24 23" fill="none" xmlns="http://www.w3.org/2000/svg">
<path d="M15.5694 15.0312C16.1787 14.4197 16.261 13.5134 15.7527 13.0041C15.2444 12.4947 14.3371 12.578 13.7267 13.1884C13.1173 13.7989 12.21 13.8812 11.7017 13.3728C11.1933 12.8645 11.2756 11.9572 11.886 11.3478M11.886 11.3478L11.5173 10.9791M11.886 11.3478C12.2308 11.002 12.6704 10.827 13.0798 10.8301M15.9371 15.3989L15.5683 15.0301C15.1517 15.4478 14.5944 15.6187 14.1215 15.5207M8.50374 10.3322C8.91579 10.3322 9.31858 10.21 9.66118 9.98109C10.0038 9.75217 10.2708 9.4268 10.4285 9.04612C10.5862 8.66544 10.6274 8.24655 10.547 7.84242C10.4667 7.4383 10.2682 7.06708 9.97688 6.77572C9.68552 6.48436 9.31431 6.28594 8.91018 6.20556C8.50605 6.12517 8.08717 6.16643 7.70649 6.32411C7.32581 6.4818 7.00043 6.74882 6.77152 7.09142C6.5426 7.43403 6.42041 7.83682 6.42041 8.24886" stroke="#96B87D" stroke-width="2" stroke-linecap="round"/>
<path d="M16.3474 3.92502C14.737 2.31565 13.9328 1.51044 12.888 1.21148C11.8432 0.911482 10.7338 1.16773 8.51614 1.68023L7.23697 1.97502C5.37031 2.40523 4.43697 2.62086 3.79739 3.2594C3.15781 3.89794 2.94427 4.83336 2.51302 6.69898L2.21718 7.97815C1.70572 10.1969 1.44947 11.3052 1.74843 12.35C2.04843 13.3948 2.85364 14.199 4.46302 15.8084L6.36927 17.7146C9.17135 20.5177 10.5713 21.9167 12.3109 21.9167C14.0516 21.9167 15.4516 20.5167 18.2526 17.7156C21.0547 14.9136 22.4547 13.5136 22.4547 11.7729C22.4547 10.375 21.5505 9.19586 19.7422 7.33336" stroke="#96B87D" stroke-width="2" stroke-linecap="round"/>
</svg>
